<?xml version="1.0" encoding="utf-8"?>
<!-- Generator: Adobe Illustrator 24.0.1, SVG Export Plug-In . SVG Version: 6.00 Build 0)  -->
<svg version="1.1" id="Layer_1" xmlns="http://www.w3.org/2000/svg" xmlns:xlink="http://www.w3.org/1999/xlink" x="0px" y="0px"
	 viewBox="0 0 640 480" style="enable-background:new 0 0 640 480;" xml:space="preserve">
<style type="text/css">
	.st0{opacity:0.48;}
	.st1{fill:none;stroke:#29ABE2;stroke-width:8;stroke-linecap:round;stroke-linejoin:round;}
	.st2{opacity:0.37;}
</style>
<g class="st0">
	<g>
		<path class="st1" d="M585.09,323.99c0.6,1.04,36.61-22.9,37.37-21.58c0.52,0.9-36.03,24.89-35.46,25.88
			c0.57,0.98,39.64-24.55,40.37-23.3c0.43,0.75-27.73,21.21-27.26,22.03c0.45,0.77,21.82-13.61,22.26-12.85
			c0.16,0.28-9.28,10.15-9.09,10.47c0.31,0.54,8.22-5.41,8.51-4.91"/>
		<path class="st1" d="M40.97,243.85c0.3,0.52,8.92-6.02,9.3-5.37c0.17,0.3-11.22,12-10.98,12.42c0.65,1.12,19.7-12.8,20.32-11.73
			c0.33,0.57-22.4,18.35-22.09,18.88c3.72,6.44,229.22-141.05,232.99-134.52c3.99,6.9-245.56,139.1-242.12,145.07
			c4.64,8.05,260.49-158.74,264.1-152.48c3.67,6.35-266.6,150.16-262.4,157.44c4.78,8.28,268.03-164.61,272.3-157.21
			c3.34,5.78-273.58,152.78-268.99,160.73c4.14,7.18,284.24-174.18,288.6-166.62c3.96,6.87-287.06,162.4-283.29,168.92
			c5.17,8.96,284.03-175.61,289.06-166.89c3.99,6.92-296.67,169.62-293.24,175.55c3.89,6.74,308.92-189.64,313.8-181.18
			c5.14,8.89-320.63,179.27-315.46,188.22c4.7,8.15,318.06-194.5,322.76-186.35c3.75,6.5-316.58,178.39-312.19,186.01
			c5.36,9.28,321.49-194.81,325.47-187.91c5.52,9.56-329.16,186.65-324.95,193.94c5.87,10.16,331.25-203.12,336.39-194.22
			c4.5,7.8-338.04,190.46-333.57,198.19c4.18,7.24,329.55-203.59,335.32-193.6c4.95,8.57-334.42,189.31-330.21,196.6
			c4.95,8.57,335.35-207.44,341.33-197.07c5.23,9.07-342.24,192.01-337.41,200.38c5.84,10.12,338.74-205.07,342.85-197.95
			c4.88,8.46-342.35,193.54-338.11,200.89c4.18,7.25,341.8-206.96,345.97-199.75c5.21,9.02-341.65,191.39-336.62,200.11
			C75.46,324,405,109.68,409.86,118.1c5.59,9.68-343.11,192.43-338.21,200.91c5.28,9.14,375.99-229.13,381.21-220.09
			c4.57,7.91-384.2,213.15-377.93,224.01c5.65,9.78,384.56-232.75,389.21-224.71c5.46,9.46-383.78,217.12-379.32,224.85
			C90.66,333.2,467.27,88.81,473.1,98.9c5.65,9.79-395.29,219.25-388.81,230.49c5.2,9.01,396.78-240.63,401.78-231.97
			c5.12,8.87-401.52,223.48-395.36,234.16c7.02,12.17,393.72-239.32,398.91-230.31c6.03,10.44-401.61,221.98-394.9,233.6
			c5.2,9.01,396.81-240.58,401.78-231.97c6.2,10.73-399.56,221.26-393.16,232.34c4.84,8.39,398.58-241.38,403.46-232.94
			c5.27,9.12-401.65,225.41-396.19,234.85c6.73,11.65,401-243.13,406.02-234.42c6.6,11.43-411.78,228.53-405.34,239.67
			c6.73,11.66,407.74-251.23,414.59-239.36c4.84,8.39-418.97,232.23-412.1,244.13c5.69,9.85,410.67-248.6,415.65-239.97
			C535.2,117.2,117,338.05,122.86,348.2c5.12,8.87,415.3-252.65,420.88-242.99c6.19,10.72-425.46,236.51-418.88,247.91
			c6.58,11.4,422.55-258.68,428.92-247.64c5.47,9.47-435.61,244.36-430.2,253.74c6.81,11.8,429.65-265.17,437.06-252.34
			c5.14,8.9-431.28,242.62-426,251.77c5.85,10.14,426.74-259.57,432.45-249.67c5.9,10.23-437.48,246.44-432.24,255.51
			c5.75,9.97,427.33-264.32,434.95-251.12c5.68,9.84-431.51,238.21-424.49,250.38c5.79,10.02,427.71-264.24,435.2-251.26
			c6.15,10.65-441.47,245.31-434.91,256.67c6.86,11.88,437.74-268.31,444.48-256.62c6.59,11.42-446.56,251.05-441.21,260.31
			c5.63,9.75,434.96-265.22,441.06-254.65c7.35,12.73-440.91,246.05-434.69,256.81c6.35,11,431.83-265.27,438.74-253.3
			c6.46,11.19-435.23,243.75-429.32,253.99c7.55,13.07,428.14-259.16,433.32-250.18c6.38,11.06-425.47,236.05-418.92,247.41
			c6.22,10.77,424.44-260.16,430.99-248.83c5.86,10.16-417.27,232.63-411.07,243.37c5.95,10.31,406.93-249.92,413.42-238.69
			c6.23,10.79-390.22,220.74-385.51,228.9c6.35,11,381.79-232.89,387.19-223.54c6.35,10.99-388.35,217.78-382.84,227.31
			c6.57,11.37,369.13-228.39,375.74-216.93c5.96,10.32-373.87,208.22-368.04,218.32C245.45,374.1,610.27,134.69,616.22,145
			c6.47,11.2-378.09,211.09-372.32,221.09c4.94,8.55,365.35-224.14,371.07-214.24c5.44,9.42-365.5,203.26-359.57,213.53
			c6.12,10.61,350.2-215.18,355.83-205.44c5.71,9.89-360.6,201.24-354.85,211.2c5.19,8.98,340.59-210.64,346.65-200.14
			c4.25,7.37-345.64,195.41-341.51,202.57c5.53,9.58,336.29-207.21,341.94-197.42c4.04,7-342.96,191.2-337.45,200.75
			c5.83,10.1,330.7-203.59,336.18-194.09c5.58,9.66-329.82,184.93-324.8,193.62c4.36,7.56,327.62-202.94,333.59-192.6
			c4.42,7.66-331.8,187.83-327.55,195.18c4.12,7.14,329.46-202.82,334.92-193.36c4.17,7.23-330.4,183.26-324.86,192.85
			c5.27,9.12,320.06-194.24,324.15-187.15c4.16,7.2-321.07,181.33-316.84,188.65c5.55,9.61,314.95-193.05,319.81-184.64
			c4.95,8.58-317.63,179.29-313.25,186.86c4.4,7.62,308.01-189.85,313.22-180.84c4.08,7.06-278.03,155.3-273.38,163.35
			c3.9,6.76,270.47-164.67,274.16-158.28c4.36,7.55-273.55,155.31-269.71,161.97c3.31,5.73,265.42-163.19,269.73-155.73
			c4.44,7.69-267.16,149.98-262.67,157.76c4.5,7.79,267.58-162.46,271.03-156.48c4.08,7.06-262.49,148.57-258.46,155.54
			c4.56,7.9,252.86-155.78,257.1-148.44c4.31,7.46-255,144.16-251.31,150.55c4.36,7.54,241.12-147.06,244.52-141.17
			c3.16,5.47-239.6,135.92-235.92,142.3c3.55,6.15,225-137.85,228.44-131.89c3.28,5.69-214.02,122.32-210.87,127.77
			c3.57,6.19,196.86-121.85,200.41-115.71c2.9,5.03-185.29,106.58-182.42,111.55c3.12,5.41,184.59-112.3,187.07-108.01
			c2.11,3.65-138.63,80.32-136.32,84.32c1.81,3.13,132.42-82.55,135.06-77.98c2.18,3.78-135.41,78.84-133.36,82.38
			c1.98,3.44,139.79-85.55,141.89-81.92c2.45,4.24-142.96,83.1-140.61,87.17c2.1,3.63,143.01-86.64,144.77-83.59
			c2.43,4.21-141.93,83.13-139.95,86.56c2.51,4.35,139.71-84.79,141.5-81.69c2.21,3.83-138.88,81.56-136.9,84.99
			c2.46,4.26,130.13-79.17,131.88-76.14c1.89,3.27-123.06,73.33-121.33,76.32c2.16,3.73,130.39-80.2,132.52-76.51
			c1.99,3.45-126.21,73.83-124.27,77.19c1.83,3.16,121.35-74.14,123.11-71.08c2.07,3.59-121.52,71.56-119.63,74.83
			c1.71,2.96,112.93-68.93,114.54-66.13c1.84,3.19-109.08,65.16-107.58,67.77c1.91,3.31,105.59-65.16,107.41-62.01
			c1.39,2.41-96.58,58.74-95.22,61.09c0.67,1.15,45.85-28.41,46.69-26.96c0.49,0.85-28.63,20.7-28.18,21.48
			c0.46,0.79,19.97-12.6,20.43-11.8"/>
		<path class="st1" d="M71.65,172.06c0.31,0.55,9.33-6,9.6-5.54c0.35,0.6-22.31,18.04-22.02,18.54c0.47,0.82,27.06-16.73,27.54-15.9
			c0.36,0.63-26.32,20.34-25.93,21.02c0.78,1.36,40.06-24.65,40.72-23.51c0.71,1.24-45.77,30.82-44.98,32.18
			c2.41,4.17,149.85-92.33,152.37-87.97c2.04,3.54-152.22,88.43-149.73,92.75c2.86,4.96,165.3-101.94,168.11-97.06
			c2,3.46-168.67,96.7-165.78,101.7c2.56,4.44,172.73-105.56,175.26-101.18c2.68,4.64-171.26,99.58-168.82,103.8
			c2.94,5.09,173.07-105.59,175.52-101.34C246.15,114.18,61.5,214.85,64,219.17c2.97,5.14,188.24-115.24,191.08-110.32
			c2.87,4.96-193.81,110.36-190.62,115.89c2.94,5.09,191.71-118.19,194.96-112.56c2.38,4.13-186.49,106.14-183.57,111.19
			c3.16,5.48,181.13-110.39,183.64-106.03c2.66,4.6-181.98,103.08-178.85,108.49c2.92,5.05,186.46-113.9,189.17-109.21"/>
		<path class="st1" d="M121.32,136.42c0.28,0.49,6.2-4.14,6.44-3.72c0.19,0.34-9.26,10.58-9.11,10.84
			c0.48,0.83,19.87-12.67,20.39-11.77c0.36,0.62-27.76,20.96-27.31,21.74c0.83,1.44,40.8-25.55,41.66-24.05
			c0.62,1.07-43.75,29.56-43.16,30.59c0.9,1.55,59.53-36.34,60.38-34.86"/>
	</g>
</g>
<g class="st2">
	<g>
		<path class="st1" d="M502.72,308.06c0.45,0.77,27.89-17.08,28.31-16.35c0.31,0.54-18.32,15.38-18,15.93
			c0.39,0.67,11.47-7.62,11.9-6.87c0.17,0.3-11,11.23-10.8,11.59c0.27,0.47,8.61-5.44,8.81-5.09"/>
		<path class="st1" d="M420.78,320.1c1.55,2.68,96.94-59.4,98.42-56.82c1.73,3-101.08,59.86-99.43,62.7
			c1.71,2.96,102.13-62.05,103.47-59.74c1.14,1.97-94.09,56.22-92.54,58.91c1.3,2.26,90.95-56.72,92.78-53.56
			c1.11,1.92-86.57,51.97-85.12,54.49c1.46,2.52,91.15-56.61,92.88-53.62c1.15,1.98-97.23,58.73-95.89,61.05
			c1.49,2.59,98.6-59.81,99.85-57.65c1.47,2.55-87.64,52.55-86.19,55.05c1.67,2.9,76.31-47.27,77.7-44.86
			c1.09,1.88-77.02,47.09-75.74,49.3c1.37,2.38,81.62-50.67,83.15-48.01c1.03,1.78-73.65,45.74-72.62,47.52
			c0.51,0.88,22.7-14.73,23.4-13.51"/>
		<path class="st1" d="M120.72,239.08c0.28,0.48,1.75-1.64,2.02-1.17c0.14,0.25-5.72,9.01-5.61,9.2
			c2.69,4.66,192.12-119.12,195.68-112.97c3.45,5.97-208.6,119.43-205.86,124.18c3.06,5.3,216.26-131.65,219.21-126.56
			c3.45,5.97-221.32,125.94-217.91,131.85c3.6,6.24,226.47-139.06,230.07-132.83c3.8,6.58-230.37,130.52-227.02,136.32
			c3.34,5.79,229.16-140.4,232.66-134.33c3.61,6.26-230.93,129.68-227.07,136.37c4.3,7.44,238.61-144.9,241.71-139.55
			c2.86,4.95-248.04,141.23-244.93,146.62c3.17,5.5,242.83-149.59,246.9-142.55C364.49,140.47,114,275.29,117,280.48
			c3.3,5.72,242.96-149.73,247.05-142.64c3.14,5.45-246.39,140.24-243.26,145.66c4.01,6.95,248.66-150.89,251.83-145.4
			c4.12,7.13-258.4,145.35-254.38,152.3c3.24,5.62,248.91-152.22,252.6-145.84c4.01,6.95-249.18,141.51-245.73,147.48
			c4.09,7.08,283.83-173.87,288.16-166.37c4.92,8.53-291.73,165.24-287.97,171.75c4.41,7.64,303.23-183.61,306.93-177.21
			c4.62,8-301.99,169.3-297.13,177.72c4.71,8.16,297.19-182.49,301.91-174.31c3.59,6.21-302.08,169.52-297.67,177.15
			c3.76,6.51,302.57-184.88,306.98-177.24c4.4,7.61-302.67,170.13-298.17,177.93c4.27,7.39,299.72-185.79,305.24-176.23
			c4.38,7.58-304.25,172.27-300.48,178.78c4.88,8.45,298.53-183.77,303.47-175.21c4.26,7.37-308.17,173.89-303.68,181.66
			c4.91,8.5,306.51-189.8,312.07-180.17c4.86,8.41-313.6,178.38-309.98,184.66c4.44,7.69,317.87-192.81,321.89-185.84
			c5.27,9.13-314.52,177.52-310.09,185.19c3.92,6.78,307.33-187.67,311.76-180c5.27,9.13-312.58,173.58-307.3,182.72
			c4.94,8.56,315.91-195.53,321.6-185.67c4.73,8.19-327.77,182.76-322.58,191.75c5.16,8.93,319.16-197.67,324.97-187.62
			c4.77,8.26-329.2,185.38-324.88,192.87c5.25,9.09,327.44-201.08,332.65-192.06c5.22,9.04-326.71,184.66-322.25,192.39
			c4.18,7.24,326.74-199.53,331.45-191.36c4,6.92-334.75,188.28-330.23,196.1c4.93,8.54,323.05-198.96,328.44-189.63
			c4.76,8.25-330.48,183.64-324.83,193.42c4.59,7.95,323.92-197.75,328.57-189.7c3.97,6.87-330.46,184.11-325.16,193.29
			c5.47,9.47,322.17-195.16,326.14-188.29c4.26,7.38-323.69,183.26-319.42,190.65c5.74,9.95,315.11-194.68,320.63-185.12
			c5.12,8.87-317.93,177.82-312.86,186.61c4.52,7.83,315.48-192.23,319.85-184.66c4.78,8.28-316.44,178.46-312,186.13
			c4.22,7.31,305.82-187.18,310.41-179.22c4.86,8.42-306.87,172.58-302.57,180.02c4.67,8.09,293.85-180.85,298.7-172.45
			c3.9,6.76-269.45,150.56-265.02,158.23c4.68,8.11,257.4-156.33,260.74-150.54c4.42,7.66-266.34,148.52-261.79,156.41
			c3.76,6.51,261.63-158.84,265-153c3.35,5.8-257.28,146.56-253.99,152.24c3.2,5.55,245.22-151.37,249.46-144.03
			c3.28,5.68-250.46,141.28-246.3,148.48c4.18,7.25,253.19-154.06,256.6-148.15c3.6,6.23-252.11,142.67-248.11,149.59
			c4.38,7.58,243.8-150.55,248.04-143.21c3.4,5.9-248.19,141.65-245.02,147.16c3.64,6.31,250.19-154.09,254.37-146.86
			c3.65,6.32-246.32,140.58-243.02,146.28c3.79,6.56,236.84-145.58,240.67-138.95c3.22,5.57-239.91,137.67-237,142.71
			c3.33,5.78,229.91-141.04,233.51-134.81c2.83,4.91-230.33,131.92-227.57,136.69c3.88,6.72,224.46-137.37,227.83-131.54
			c2.6,4.5-224.65,126.35-220.79,133.04c3.74,6.47,224.94-136.16,227.67-131.44c2.82,4.88-194.38,111.84-191.52,116.79
			C344.66,345.24,523.85,227,527,232.46c3.09,5.36-182.14,105.46-179.57,109.91c2.92,5.05,174.49-106.37,176.93-102.15
			c2.88,4.98-177.26,101.93-174.54,106.65c2.59,4.49,167.65-103.71,170.65-98.52c2.32,4.02-160.4,93.14-158.07,97.17
			c2.02,3.5,152.09-93.37,154.5-89.2c1.91,3.3-146.24,84.83-144.03,88.67c2.15,3.73,146.86-90.73,149.43-86.27"/>
		<path class="st1" d="M133.53,186.03c0.3,0.52,12.85-8.1,13.15-7.59c0.35,0.6-17.52,15.24-17.26,15.68
			c0.47,0.82,26.02-16.06,26.47-15.28c0.41,0.71-23.34,17.87-22.97,18.5c1.86,3.22,111.27-69.3,113.47-65.51
			c1.71,2.97-119.18,71.28-117.73,73.79c1.79,3.11,126.85-76.97,128.47-74.17c2.05,3.55-126.59,74.25-124.67,77.58
			c1.87,3.24,132.47-81.52,134.65-77.74c2.03,3.52-132.39,77.03-130.12,80.95c2.48,4.29,131.83-81.85,134.32-77.55
			c1.85,3.21-138.3,81.66-136.41,84.93c2.48,4.29,139.26-84.61,141.08-81.45c2.4,4.16-139.53,81.88-137.53,85.35
			c2.38,4.13,136.9-84.28,139.17-80.35c2.34,4.04-134.25,79.56-132.49,82.61c2.62,4.53,155.25-95.06,157.6-90.99"/>
		<path class="st1" d="M176.24,152.32c0.26,0.44,4.01-2.9,4.27-2.46c0.15,0.26-7.94,9.71-7.79,9.97
			c0.49,0.86,21.27-13.42,21.76-12.56c0.46,0.8-27.41,21.05-26.94,21.87c0.83,1.43,39.3-24.59,40.12-23.16"/>
	</g>
</g>
</svg>
