<?xml version="1.0" encoding="utf-8"?>
<!-- Generator: Adobe Illustrator 24.0.1, SVG Export Plug-In . SVG Version: 6.00 Build 0)  -->
<svg version="1.1" id="Layer_1" xmlns="http://www.w3.org/2000/svg" xmlns:xlink="http://www.w3.org/1999/xlink" x="0px" y="0px"
	 viewBox="0 0 640 191" style="enable-background:new 0 0 640 191;" xml:space="preserve">
<style type="text/css">
	.st0{opacity:0.32;}
	.st1{fill:none;stroke:#0071BC;stroke-width:8;stroke-linecap:round;stroke-linejoin:round;}
	.st2{opacity:0.35;}
	.st3{fill:none;stroke:#29ABE2;stroke-width:8;stroke-linecap:round;stroke-linejoin:round;}
</style>
<g class="st0">
	<g>
		<path class="st1" d="M564.84,52.3c0.32,0.55,10.98-7.17,11.34-6.55"/>
		<path class="st1" d="M44.86,42.86c0.43,0.74,16.53-10.68,17.02-9.83c0.54,0.93-38.04,26.17-37.45,27.2
			c0.88,1.53,47.39-29.05,48.12-27.78c0.73,1.27-47.95,31.33-47.12,32.77c0.89,1.54,53.56-33.08,54.5-31.46
			c0.88,1.53-56.82,36.05-55.89,37.64C25,73.07,82.56,34.99,83.69,36.95c1.1,1.9-63.14,40.25-62.1,42.05
			c1,1.74,72.33-44.64,73.57-42.48c0.87,1.51-65.67,42.24-64.81,43.74c1.06,1.83,70.38-43.35,71.56-41.31
			c0.92,1.59-75.67,47.05-74.38,49.27c1.06,1.84,74.83-45.66,75.9-43.82c1,1.73-84.72,51.7-83.23,54.27
			c1.27,2.2,92.26-55.93,93.41-53.93c1.24,2.15-96.21,58.07-94.56,60.92c1.73,3,97.9-60.62,99.67-57.55
			c1.49,2.58-94.54,56.39-93.05,58.97c1.78,3.09,90.63-55.75,92.11-53.18c1.61,2.78-92.9,56.27-91.72,58.32
			c1.68,2.92,93.54-58.33,95.42-55.09c1.47,2.55-102.05,60.83-100.52,63.49c1.89,3.28,109.12-67.5,111.06-64.12
			c1.45,2.52-115.06,68.25-113.25,71.38c1.62,2.8,113.98-70.72,116.1-67.03c1.65,2.86-117.03,69.32-115.14,72.58
			c1.91,3.31,124.05-75.24,125.62-72.53c2.01,3.48-127.22,75.88-125.59,78.71c1.91,3.3,124.76-77.62,127.19-73.43
			c2.15,3.73-124.05,72.4-121.93,76.07c2.29,3.97,128.06-78.72,130.13-75.13c2.16,3.74-141.24,82.61-139.27,86.03
			c2.2,3.82,150.42-91.13,152.28-87.92c2.53,4.38-149.97,85.98-147.4,90.43c2.4,4.16,155.67-95.25,158-91.22
			c2.65,4.58-158.65,91.99-156.48,95.75c2.37,4.1,176.85-108.21,179.5-103.63c2.92,5.05-186.34,106.61-183.25,111.96
			c2.54,4.4,197.76-120.43,200.46-115.74c3.28,5.68-207.28,119.92-204.64,124.49c4,6.92,218.63-133.84,221.92-128.13
			c3.61,6.25-221.24,125.4-217.9,131.18c2.99,5.18,222.95-138.25,227.08-131.1c3.61,6.25-236.72,136.37-233.93,141.21
			c3.32,5.75,235.76-145.21,239.69-138.39c2.9,5.03-243.13,137.02-239.27,143.71C16.02,202.8,254.5,48.18,257.76,53.83
			C261.55,60.4,14.13,190.79,18.18,197.8c3.54,6.13,245.89-152,250.24-144.47C271.72,59.05,10.62,200.17,14,206.02
			c4.33,7.49,250.57-154.4,254.79-147.1C272.8,65.87,8.71,207.93,11.73,213.17c4.6,7.97,260.09-160.68,264.64-152.79
			C279.63,66,5.56,212.27,9.91,219.8c4,6.92,263.95-161.12,267.73-154.57c2.97,5.15-256.56,146.76-253.3,152.39
			c4.17,7.22,255.5-157.83,259.97-150.09C288.02,73.96,28.78,211.1,33.11,218.6c4.23,7.32,250.97-155.7,255.65-147.6
			c3.02,5.22-254.28,145.38-250.99,151.1c4.81,8.34,262.53-161.12,266.67-153.96c3.17,5.49-256.01,146.56-252.98,151.82
			c3.67,6.35,270.86-164.73,274.48-158.47C329.99,68.5,55.79,212.4,60.32,220.25c4.22,7.31,274.19-169.72,279.14-161.16
			c3.77,6.53-276.52,155.33-271.96,163.21C72.53,231.03,346.19,51.79,350.35,59c4.04,7-272.16,154.59-268.72,160.54
			c4.86,8.41,279.68-172.69,284.54-164.28c3.68,6.38-277.24,154.64-272.59,162.68C97.75,225.17,364.6,51.63,368.85,59
			C372.31,65,93.76,216.02,97.29,222.13c4.35,7.53,280.07-173.02,284.97-164.53c4.44,7.68-276.53,156.21-272.37,163.4
			c4.92,8.52,274.49-168.16,278.69-160.9c3.2,5.55-271,153.18-267.22,159.74c4.66,8.07,267.91-164.58,272.2-157.16
			c3.78,6.54-263.98,149.23-259.9,156.3c4.85,8.4,270.21-165.34,274.25-158.34c3.07,5.31-266.51,151.13-262.91,157.37
			c3.39,5.88,261.7-160.12,265.61-153.35c3.22,5.58-261.39,147.57-257.41,154.47c3.77,6.54,257.7-157.85,261.63-151.05
			c3.27,5.66-258.57,145.23-254.17,152.85c4.48,7.76,258.18-157.69,261.91-151.22c3.36,5.82-256.3,143.89-252.21,150.97
			c4.26,7.38,254.18-156.03,258.2-149.07c3.3,5.71-248.08,142.72-245.2,147.71c4.79,8.3,297.31-183.46,302.42-174.6
			c3.92,6.79-297.85,169.2-294.17,175.57c4.88,8.46,291.16-177.87,295.39-170.54c4.17,7.22-290.09,161.87-285.28,170.2
			c3.92,6.8,289.13-178.16,293.99-169.74c3.61,6.26-290.59,164.11-286.42,171.35c4.44,7.69,290.78-176.27,294.41-169.98
			c4.81,8.32-282.05,158.46-277.45,166.43c3.94,6.83,277.71-171.61,282.59-163.15c3.53,6.11-281.62,157.23-277.04,165.16
			c5.06,8.76,280.5-170.11,284.04-163.99c4.48,7.76-278.66,156.42-274.21,164.12c4.56,7.9,278.87-170.68,283.06-163.43
			c4.1,7.11-273.95,154.15-269.67,161.56c4.56,7.89,265.36-164.54,270.26-156.04c3.35,5.8-269.44,150.64-264.85,158.6
			c4.7,8.15,263.29-162.68,267.91-154.68c3.98,6.89-261.21,149.17-257.99,154.74c4.34,7.51,261.4-158.73,264.79-152.87
			c4.18,7.24-258.48,146.5-254.78,152.9c5.12,8.86,297.41-182.94,302.28-174.52c4.8,8.31-299.46,169.73-295.38,176.78
			c5.32,9.22,303.13-185.16,307.52-177.55c5.05,8.74-300.92,170.64-296.89,177.61c4.95,8.57,301.89-186.08,307-177.24
			c3.93,6.8-301.08,171.51-297.58,177.57c4.13,7.15,299-184.26,304.04-175.54c4.22,7.31-292.97,164.56-288.36,172.54
			c5.32,9.22,292.22-177.35,295.96-170.87c4.45,7.71-294.74,167.8-291.02,174.24c3.73,6.46,293.93-181.75,299.14-172.71
			c3.55,6.14-289.36,162.74-285.12,170.08c3.61,6.25,274.88-168.43,279.09-161.14c3.65,6.33-269.9,151.1-265.3,159.06
			c4.33,7.5,268.07-163.78,271.97-157.02c3.96,6.85-272.13,154.55-268.58,160.71c3.88,6.72,263.93-163.24,268.63-155.1
			c3.95,6.83-256.83,144.93-252.91,151.72c3.43,5.93,244.36-148.75,247.68-143c3.21,5.57-248.54,142.19-245.32,147.77
			c4.02,6.95,244.88-148.71,248.06-143.21c3.99,6.9-240.71,135.98-237.14,142.16c3.16,5.48,232.75-142.36,236.21-136.38
			c3.17,5.49-231.28,130.71-227.69,136.93c3.66,6.35,224.24-136.05,227.09-131.11c3.43,5.94-221.02,125.91-217.98,131.18
			c3.41,5.9,216.38-131.59,219.26-126.59c3.28,5.68-206.28,118.73-203.39,123.74c2.99,5.19,203.79-123.87,206.48-119.21
			c2.5,4.33-204.86,116.46-201.41,122.44c3.16,5.48,198.5-122.1,201.75-116.48c3.15,5.46-189.24,110.25-186.95,114.21
			c2.45,4.25,181.87-112.67,185.19-106.92c2.38,4.12-174.68,101.75-172.57,105.4c2.82,4.88,172.58-106.69,175.64-101.4
			c3,5.2-175.12,100.03-172.34,104.84c2.76,4.78,163.85-100.83,166.54-96.15c1.99,3.44-152.74,88.51-150.53,92.34
			c2.06,3.56,147.07-91.61,149.98-86.59c2.01,3.49-148.21,87.23-146.24,90.65c2.2,3.81,143.81-88.27,146.08-84.34
			c2.32,4.01-136.05,80.71-134.25,83.83c2.38,4.11,131.34-80.11,133.2-76.9c1.71,2.96-127.81,74.47-125.85,77.86
			c2.08,3.6,129.8-79.25,131.67-76.02c1.68,2.92-118.47,69.9-116.63,73.1c2.02,3.51,108.59-66.26,110.14-63.59
			c1.3,2.25-104.7,63.11-103.47,65.25c1.56,2.71,111.9-69.1,113.85-65.73c1.6,2.76-111.74,65.59-109.87,68.84
			c1.71,2.97,101.76-62.24,103.27-59.62c1.11,1.92-85.54,52.03-84.18,54.38c1.72,2.98,82.35-51.14,83.91-48.45
			c1.19,2.06-75.91,47.07-74.77,49.05c1.55,2.69,74.48-45.58,75.6-43.65c1.18,2.05-67,42.03-65.89,43.95
			c1.03,1.79,67.42-41.94,68.72-39.68c0.88,1.53-66.31,41.67-65.15,43.68c0.97,1.68,62.9-39.14,64.12-37.02
			c0.66,1.15-49.37,32-48.62,33.31c0.89,1.55,44.52-27.98,45.51-26.27c0.71,1.22-41.9,28.79-41.35,29.73
			c0.79,1.36,47.2-28.86,47.9-27.65c0.65,1.13-38.28,26.09-37.66,27.17c0.69,1.2,36.05-22.01,36.57-21.11
			c0.37,0.64-28.85,21.83-28.41,22.59c0.57,0.99,23.83-14.77,24.27-14.01c0.24,0.42-13.75,13.54-13.5,13.97
			c0.39,0.68,15.75-9.97,16.13-9.31c0.08,0.15-2.69,6.93-2.59,7.12c0.19,0.32,2.23-1.65,2.39-1.38c0.06,0.1,2.04,4.35,2.11,4.48
			c0.06,0.1,3.17-1.94,3.22-1.86"/>
	</g>
</g>
<g class="st2">
	<g>
		<path class="st3" d="M549.69,40.71c0.39,0.68,18.28-11.32,18.61-10.74"/>
		<path class="st3" d="M31.16,31.24c0.36,0.62,23.77-14.77,24.22-13.99c0.56,0.98-37.93,26.16-37.29,27.27
			C18.82,45.77,65,15.29,65.94,16.9c0.62,1.08-41.43,28.99-40.89,29.93c0.9,1.56,46.12-28.49,46.93-27.09
			c0.99,1.71-55.67,36.09-54.71,37.77c1.2,2.08,60.19-36.76,61.06-35.26c0.77,1.33-58.02,37.51-57.22,38.89
			c1.3,2.26,65.2-40.35,66.37-38.32c1.15,2-72.93,44.56-71.67,46.75c1.04,1.8,72.18-44.62,73.45-42.41
			c1.09,1.89-66.91,41.62-65.88,43.4c1.38,2.39,71.32-43.6,72.37-41.78c1.25,2.16-77.26,47.29-76,49.49
			c1.55,2.69,85.23-51.94,86.41-49.89c1.5,2.59-92.95,56.04-91.62,58.35c1.74,3.01,93.7-57.67,95.25-54.99
			c1.3,2.24-96.29,58.36-94.84,60.86c1.85,3.2,97.01-59.75,98.63-56.94c1.19,2.05-96.33,58.27-94.91,60.74
			c1.94,3.36,103.4-64.24,105.37-60.84c1.3,2.26-105.08,62.72-103.58,65.32c1.56,2.7,101.06-62.47,102.85-59.38
			c1.6,2.77-109.57,65.07-107.87,68.02c1.6,2.77,117.62-71.37,119.12-68.78C136.1,43.39,7.78,115.33,9.9,119
			c2.12,3.67,126.64-77.83,128.68-74.29c1.76,3.04-123.96,72.29-121.96,75.75c1.83,3.17,120.45-75.04,122.84-70.92
			c2.01,3.48-127.68,75.71-125.82,78.94c2.32,4.02,132.43-82.13,134.89-77.88c1.71,2.96-132.64,76.91-130.49,80.64
			c2.71,4.69,140.9-87.28,143.47-82.83c2.08,3.6-154.07,89-151.71,93.09c2.64,4.57,161.63-98.11,163.71-94.52
			c2.1,3.64-167.44,97.26-165.32,100.93c2.2,3.8,180.9-110.51,183.53-105.96C194.33,46.49,8.76,148.1,11,151.96
			C13.53,156.36,208.95,30.97,211.85,36c2.38,4.12-204.18,117.84-201.74,122.07c3.38,5.86,215.21-131,218.13-125.94
			c2.55,4.41-221.17,125.2-217.62,131.35c3.05,5.27,228.8-138.88,231.74-133.8C246.16,36.25,5.6,164.37,9.19,170.59
			c3.17,5.49,228.77-140.52,232.42-134.19C244.79,41.9,5.8,171.6,8.7,176.63c4.02,6.96,236.4-144.75,239.98-138.55
			C251.96,43.76,7.63,176.33,10.56,181.4c3.2,5.54,239.39-148.2,243.71-140.71C257.6,46.47,4.72,181.99,8.41,188.39
			c3.32,5.74,246.54-149.55,249.67-144.15C261.51,50.18,2.47,190.15,5.6,195.58c3.26,5.65,252.73-156.26,257.21-148.5
			C266.88,54.13,4.01,193.1,8.01,200.02C12.3,207.45,269.47,39.98,273.4,46.79c3.87,6.7-263.37,147.94-259.05,155.41
			c4.56,7.91,254.25-154.22,257.46-148.65c3.86,6.69-252.03,144.28-248.86,149.76C27.21,210.7,280.43,44.44,284.85,52.1
			c3.84,6.64-259.53,146.83-255.98,152.99c4.14,7.17,263.18-162.58,267.78-154.6c4.02,6.97-256.28,145.91-252.65,152.21
			c4.77,8.27,265.6-163.32,269.91-155.84c3.42,5.92-271,153.07-267.25,159.57c4.32,7.49,283.06-173.6,287.47-165.97
			c3.59,6.21-275.34,157.43-272.06,163.1c3.7,6.4,277.3-169.32,281.29-162.4c3.98,6.89-280.99,157.26-276.37,165.26
			c4.56,7.9,284.57-173.87,288.71-166.69c4.66,8.07-279.57,159.44-275.99,165.65c4.93,8.55,277.29-169.92,281.54-162.55
			c4.61,7.98-268.33,151.03-263.99,158.55c5.05,8.75,269.85-164.84,273.76-158.06C374.81,49.83,95.3,200.4,98.58,206.09
			C102.89,213.54,376,36.07,380.26,43.46c4.72,8.18-276,154.87-271.36,162.91c3.95,6.85,278.94-171.43,283.43-163.64
			c3.94,6.82-275.57,153.78-270.88,161.91c3.42,5.92,266.95-163.66,271.08-156.51c4.32,7.48-268.14,150.17-263.66,157.93
			c4.28,7.41,265.84-161,269.1-155.36c3.87,6.7-258.63,146.34-254.8,152.98c3.81,6.6,263.04-159.85,266.5-153.86
			c4.02,6.96-254.68,146.45-251.71,151.6c3.93,6.82,247.76-152.2,251.72-145.33c3.43,5.94-255.05,142.56-250.68,150.14
			c3.38,5.86,249.95-151.72,253.16-146.16c2.87,4.98-236.93,136.32-234.04,141.34c4.1,7.09,287.97-177.13,292.68-168.98
			c3.35,5.8-287.61,161.29-283.07,169.15c3.84,6.65,283.23-173.44,287.52-166c4.14,7.16-282.57,159.81-278.61,166.67
			c4.38,7.59,280.41-171.49,284.56-164.29c4.28,7.42-279.32,158.38-275.33,165.29c5.16,8.94,283.94-174.79,288.64-166.65
			c4.18,7.24-281.55,159.34-277.72,165.99c3.93,6.8,280.96-170.42,284.51-164.26c4.62,8-284.34,161.58-280.79,167.74
			c5.07,8.79,286.3-176.21,291.03-168.02c4,6.92-287.19,160.62-282.57,168.63c3.95,6.84,275.46-170.39,280.38-161.88
			c3.92,6.79-273.61,153.98-269.17,161.66c4.81,8.33,275.82-168.63,279.88-161.59c3.7,6.42-271.84,155.54-268.57,161.21
			c4.48,7.77,261.67-162.24,266.5-153.87c4.21,7.3-255.02,143.16-250.9,150.31c3.25,5.64,258.59-158.48,262.57-151.59
			c4.51,7.82-263.67,148.49-259.59,155.56c5.2,9.01,304.29-185.17,308.4-178.06c5.04,8.73-300.88,170.64-297.02,177.33
			c4.45,7.7,301.47-184.54,306.01-176.68c4.16,7.2-298.82,168.99-294.84,175.88c4.65,8.05,301.32-184.06,305.7-176.49
			c4.08,7.06-298.2,166.85-293.43,175.11c4.88,8.45,295.78-181.88,300.59-173.55c4.79,8.3-296.86,167.71-292.79,174.74
			c4.24,7.35,290.75-179.02,295.58-170.66c4.47,7.74-296.59,165.14-291.69,173.63c3.96,6.86,290.56-178.34,295.14-170.4
			c4.21,7.3-286.35,159.96-281.52,168.33c4.06,7.04,282.85-173.15,287.12-165.77c4.18,7.24-277.16,155.66-272.93,162.99
			C348.89,210.6,610.34,38.59,615,46.66c4.57,7.92-271.28,153.66-267.47,160.25c3.64,6.3,266.02-162.97,270.09-155.93
			c3.23,5.59-258.29,146.73-254.92,152.56c4.58,7.93,245.56-150.99,249.55-144.08c3.91,6.78-241.36,138.46-238.27,143.81
			c4.24,7.35,234.32-145.14,238.59-137.75c2.84,4.92-239.76,134.82-235.77,141.73c3.56,6.17,233.44-143.13,237.06-136.87
			c3.57,6.19-225.45,129.35-222.8,133.93c4.1,7.1,222.61-135.34,225.56-130.23c2.87,4.97-220.76,124.87-217.25,130.94
			c3.86,6.69,219.11-133.71,222.23-128.31c2.95,5.11-220.72,126.42-217.74,131.58c3.36,5.82,211.87-130.25,215.3-124.3
			c3.48,6.03-202.15,116.45-199.51,121.03c2.48,4.3,196.41-120.42,199.45-115.15c2.94,5.1-199.2,114.05-196.32,119.03
			c3.33,5.76,191.02-118.16,194.43-112.25c2.84,4.91-187.5,108.08-185.03,112.36c3.18,5.5,183.49-111.45,185.88-107.32
			c2.72,4.72-170.14,98.95-167.71,103.16c2.22,3.85,167.84-103.69,170.78-98.6c2.61,4.53-169.93,97.64-167.47,101.91
			c2.29,3.96,157.3-97.76,160.31-92.55c1.99,3.44-152.11,89.13-150.06,92.67c2.82,4.88,151.08-92.95,153.56-88.66
			c2.24,3.88-139.92,80.46-137.52,84.62c1.94,3.35,132.53-81.9,134.86-77.86c1.79,3.1-127.41,74.78-125.33,78.38
			c2.43,4.2,126.54-77.02,128.26-74.05c1.84,3.19-124.9,73.88-123.13,76.95c1.79,3.1,118.16-73.27,120.35-69.48
			c1.31,2.27-111.06,65.88-109.23,69.06c2.16,3.73,113.82-69.9,115.63-66.76c1.27,2.2-106.09,63.04-104.38,66
			c1.73,3,97.21-59.83,98.82-57.05c1.38,2.38-89.26,54.34-88.08,56.39c1.76,3.05,93.31-57.39,94.83-54.75
			c1.13,1.96-92.77,56.18-91.37,58.59c1.27,2.19,89.84-54.88,91.14-52.62c1.33,2.31-78.22,48.78-77.29,50.39
			c1.01,1.76,72.4-45.25,73.89-42.66c0.97,1.68-65.95,41.59-64.86,43.49c0.92,1.6,60.41-36.93,61.3-35.39
			c0.63,1.09-49.25,32.56-48.63,33.64c1.09,1.88,48.95-30.18,49.78-28.74c0.57,0.99-45.97,31.22-45.3,32.38
			c0.74,1.28,45.67-27.97,46.36-26.77c0.54,0.94-30.74,22.96-30.27,23.78c0.65,1.13,31.31-19.46,31.91-18.42
			c0.42,0.73-25.49,19.7-25.07,20.42c0.57,0.99,23.48-14.69,23.97-13.84c0.18,0.31-8,9.97-7.85,10.23c0.35,0.6,6.93-4.79,7.28-4.2
			c0.13,0.23-4.84,7.87-4.71,8.09c0.27,0.46,4.84-3.29,5.05-2.92c0.05,0.09,2.02,4.14,2.09,4.26c0.13,0.22,0.13-0.33,0.24-0.14"/>
	</g>
</g>
</svg>
