<?xml version="1.0" encoding="utf-8"?>
<!-- Generator: Adobe Illustrator 24.0.1, SVG Export Plug-In . SVG Version: 6.00 Build 0)  -->
<svg version="1.1" id="Layer_1" xmlns="http://www.w3.org/2000/svg" xmlns:xlink="http://www.w3.org/1999/xlink" x="0px" y="0px"
	 viewBox="0 0 640 191" style="enable-background:new 0 0 640 191;" xml:space="preserve">
<style type="text/css">
	.st0{opacity:0.32;}
	.st1{fill:none;stroke:#5EB8EA;stroke-width:8;stroke-linecap:round;stroke-linejoin:round;}
	.st2{opacity:0.35;}
	.st3{fill:none;stroke:#54BAD6;stroke-width:8;stroke-linecap:round;stroke-linejoin:round;}
</style>
<g class="st0">
	<g>
		<path class="st1" d="M336.66,159.94C340.12,165.92,597.07,0.45,601.03,7.3c3.45,5.97-261.12,149.53-257.86,155.18
			c4.76,8.25,266.12-161.21,269.4-155.54c4.34,7.52-263.16,149.99-259.8,155.8c3.15,5.46,258.18-158.1,262.09-151.32
			c3.42,5.92-254.48,144.42-250.78,150.84c3.87,6.7,248.24-152.48,252.21-145.61c3.14,5.44-254.27,144.56-250.58,150.96
			c3.8,6.58,250.39-152.48,253.82-146.54c3.68,6.38-259.3,148.3-256.18,153.7c3.3,5.72,243.44-150.71,247.84-143.09
			c2.97,5.14-238.92,136.2-235.69,141.8c4.06,7.03,234.19-144.83,238.36-137.62c3.35,5.81-241.95,136.32-237.95,143.25
			c3.86,6.69,235.38-143.98,238.88-137.92c3.82,6.61-229.58,130.03-225.93,136.35c3.6,6.24,220.47-136.43,224.43-129.57
			c2.85,4.94-222.65,126.02-219.06,132.25c3.77,6.53,210.74-130.64,214.62-123.91c2.47,4.28-206.23,116.39-202.82,122.3
			c3.58,6.2,206.86-126.91,210.09-121.3c2.96,5.12-193,110.8-190.43,115.25c3.39,5.87,179.69-109.73,182.28-105.24
			c1.85,3.21-156.62,92.01-154.61,95.49c2.3,3.98,154.53-95.47,157.24-90.78c1.82,3.14-146.72,85.49-144.4,89.52
			c1.86,3.23,147.08-90.04,149.3-86.2c1.86,3.22-137.98,81.79-136.23,84.82c2.39,4.13,125.85-77.25,127.84-73.81
			c1.64,2.84-128.11,75.79-126.26,79c1.85,3.21,126.21-78.06,128.46-74.17c1.58,2.73-123.85,73.55-122.15,76.49
			c1.54,2.67,122.22-75.14,124.2-71.71c1.4,2.42-113.99,67.89-112.58,70.34c1.88,3.25,110.22-68.36,112.26-64.82
			c1.5,2.6-106.37,62.94-104.55,66.1c1.45,2.51,99.99-60.9,101.37-58.52c1.22,2.11-100.9,61.05-99.44,63.58
			c1.37,2.37,95.21-59.21,97.04-56.03c1.17,2.02-94.1,57.09-92.92,59.12c1.54,2.67,94.43-58.62,96.21-55.54
			c1.18,2.04-89.71,54.03-88.25,56.55c1.11,1.92,89.87-54.7,91.09-52.59c0.98,1.7-82.95,50.41-81.51,52.89
			c1.17,2.03,70.46-43.93,71.87-41.49c1.08,1.87-63.73,40.63-62.91,42.06c1.25,2.16,61.93-38.12,62.96-36.35
			c0.83,1.43-57.5,37.38-56.58,38.97c1.01,1.75,56.97-35.26,58-33.49c0.71,1.24-48.05,32.07-47.36,33.26
			c0.79,1.37,43.46-27.51,44.51-25.7c0.67,1.16-38.07,26.09-37.45,27.16c0.95,1.64,42.56-26.23,43.28-24.99
			c0.44,0.76-29.73,21.65-29.19,22.6c0.73,1.27,24.77-15.69,25.37-14.65c0.15,0.27-9.57,10.4-9.39,10.71
			c0.37,0.64,14.43-9.17,14.79-8.54"/>
		<path class="st1" d="M222.65,153.85c3.58,6.2,252.73-155.37,256.82-148.28c3.92,6.79-258.05,147.15-254.63,153.07
			C228.41,164.8,482.39,0.96,486.28,7.71c4.2,7.28-264.98,150.13-261.26,156.57c3.46,5.99,264.36-160.7,267.85-154.65
			c3.22,5.57-267.85,150.07-263.34,157.87c3.51,6.07,272.49-168.61,277.38-160.15c3.2,5.54-269.14,151.56-265.1,158.55
			c4.04,7,271.25-166.02,275.33-158.96c3.87,6.71-281.77,159.91-278.32,165.89c3.73,6.46,277.65-171.15,282.35-163.01
			c3.84,6.65-272.13,153.53-268.18,160.37c4.33,7.5,281.58-171.44,285.43-164.79c4.32,7.47-287.36,162.93-283.64,169.36
			C258.61,181.42,543.2-1.02,547.2,5.92c4.3,7.44-281.21,157.53-276.66,165.39c4.68,8.11,285.33-173.67,289.2-166.97
			c3.94,6.83-287.45,163.12-283.97,169.16C280.7,182.04,564.23-1.34,567.82,4.89c4.39,7.61-282.73,158.59-278.44,166.02
			c4.18,7.25,284.93-173.82,288.96-166.83c4.78,8.28-283.59,161.3-280.22,167.14C302.55,178.88,576.17-0.43,580.99,7.9
			c3.84,6.64-276.1,156.47-272.33,162.99c3.92,6.79,276.46-168.05,280.12-161.72"/>
		<path class="st1" d="M107.39,161.2c3.89,6.74,259.75-160.26,264.21-152.54c4.46,7.72-259.92,147.49-256.28,153.79
			C119.47,169.65,379.5-1.06,384.25,7.17c4.14,7.17-271.67,152.92-267.53,160.1c3.86,6.68,275.54-170.19,280.35-161.86
			c4.69,8.12-285.94,161.82-282.1,168.47C119.7,182.07,397.89,1.12,401.97,8.19c4.77,8.27-277.6,156.2-273.31,163.64
			c4.04,7,276.24-169.94,280.76-162.1c3.82,6.61-286.84,163.1-283.26,169.3c3.82,6.62,296.67-181.76,301.21-173.9
			c4.59,7.95-290.3,162.57-285.8,170.36c4,6.93,281.49-173.21,286.12-165.19c4.68,8.1-290.04,162.73-285.69,170.27
			c4.86,8.42,297.88-180.92,301.75-174.22c4.23,7.32-302.78,168.74-297.81,177.35c5.01,8.67,298.25-182.93,302.9-174.88
			c4.29,7.43-293.77,166.04-289.71,173.07C164.28,190.8,456.66,0.87,460.67,7.81c4.04,7.01-302.01,170.03-297.83,177.27
			c5.45,9.44,308.42-186.85,312.22-180.26"/>
		<path class="st1" d="M7.19,7.48c0.06,0.1,3.21-2.01,3.28-1.89c0.07,0.12-0.86,5.89-0.79,6.03c0.22,0.38,7.5-4.75,7.68-4.44
			c0.14,0.24-6.14,8.75-5.99,9.02c0.33,0.56,14.39-9.09,14.73-8.5c0.28,0.48-15.74,13.8-15.46,14.3
			C11.09,22.76,31.9,8.52,32.42,9.42c0.45,0.78-23.88,19-23.45,19.74C9.52,30.11,46.99,5.62,47.68,6.81
			c0.42,0.72-29.57,22.45-29.16,23.16c0.67,1.16,39.66-24.62,40.4-23.33c0.54,0.94-43.2,29.52-42.44,30.83
			c0.75,1.3,48.04-29.47,48.79-28.17c0.68,1.17-56.35,36.44-55.35,38.18C10.9,49.16,79.52,5.26,80.4,6.79
			C81.34,8.42,8.32,51.86,9.56,54.01C10.98,56.47,89.18,4.68,90.63,7.2c1.19,2.06-74.99,45.79-73.8,47.85
			c1.54,2.67,75.84-46.74,77.12-44.52c1.34,2.32-77.04,47.57-76.05,49.28c1.52,2.63,82.39-51.47,84.07-48.54
			c1.3,2.25-89.85,54.2-88.5,56.55C15.25,70.88,115,4.99,116.82,8.15c1.35,2.33-106.46,63.59-104.78,66.49
			c1.57,2.71,110.09-68.32,112.15-64.75c1.58,2.74-112.24,66.73-110.43,69.86c1.9,3.3,123.58-74.96,125.14-72.25
			c1.99,3.44-125.96,75.19-124.35,77.99c1.94,3.36,127.19-79.12,129.66-74.86c2.18,3.78-125.84,73.36-123.69,77.09
			C22.88,91.8,152.87,6.38,155,10.07c2.22,3.84-144.94,84.63-142.91,88.13c2.27,3.93,155.23-94.04,157.14-90.73
			c2.6,4.5-154.24,88.28-151.6,92.85c2.43,4.21,157.96-96.65,160.32-92.56c2.67,4.63-160.32,92.9-158.12,96.7
			C22.09,108.4,188.82,1.06,191.35,5.44c2.78,4.82-177.45,101.81-174.5,106.91c2.26,3.91,173.88-105.94,176.29-101.78
			c2.89,5-182,106.05-179.68,110.07c3.5,6.07,190.6-116.72,193.49-111.71c3.13,5.42-191.69,109.36-188.8,114.38
			C20.79,127.89,213.44,2.16,217.08,8.47c3.17,5.49-207.46,120.27-205.01,124.51C15.05,138.13,222.61,3.27,226.14,9.39
			C228.73,13.87,9.75,131.94,13.19,137.9C16.91,144.34,234.03,3.52,237.01,8.68c3.44,5.96-220.56,124.52-216.89,130.87
			c3.3,5.72,228.76-141.44,232.82-134.42c3.07,5.32-239.41,136.78-236.27,142.21C20.79,154.49,255.23,0.33,259.25,7.29
			c3.81,6.61-247,141.81-244.12,146.78c4.48,7.76,253.26-156.47,257.7-148.78c3.16,5.47-263.05,147.7-258.83,155.01
			c3.96,6.86,261.6-159.68,265.34-153.2c3.02,5.23-260.8,149.08-257.49,154.81c4.3,7.45,264.03-163.08,268.64-155.1
			c3.99,6.92-274.8,153.95-270.14,162.02C24.9,176.72,291.7,0.55,296.74,9.27c3.39,5.87-285.94,162.72-282.24,169.14
			c5.22,9.05,285.78-175.35,290.26-167.58c3.59,6.21-289.79,165.15-286.36,171.09C22.38,188.8,313.53,2.47,317.45,9.26
			c4.49,7.77-299.58,166.78-294.56,175.47C27.48,192.68,321.93-0.32,327.3,8.98c4.15,7.19-304.61,170.49-299.6,179.17
			C33.17,197.63,331.4,2.37,335.91,10.2c4.45,7.7-299.54,169.61-295.77,176.15C45.44,195.52,345.62-2.23,350.91,6.94
			c4.05,7.01-304.88,169.54-299.78,178.38C55.69,193.22,349.1,2.53,353.76,10.59c3.8,6.58-302.3,171.93-298.43,178.64
			c0.62,1.07,32.78-20.53,33.48-19.33"/>
	</g>
</g>
<g class="st2">
	<g>
		<path class="st3" d="M223.31,172.21c4.45,7.7,260.34-158.97,264.09-152.47c4.09,7.08-258.58,146.9-254.85,153.37
			c4.29,7.43,258.22-156.77,261.55-151c4,6.92-260.72,146.54-256.69,153.53c3.43,5.95,266.25-164.09,270.74-156.31
			c3.89,6.74-276.41,157.33-273.06,163.13C239.41,189.91,509.25,15.53,512.99,22c3.42,5.92-249.82,143.41-246.73,148.75
			c3.16,5.47,253.26-154.16,256.69-148.2c4.15,7.18-253.92,142.37-249.75,149.59c3.36,5.82,255.95-158.44,260.57-150.44
			c3.08,5.33-247.67,141.3-244.45,146.87C292.7,174.41,543.39,13.8,546.9,19.86c3.45,5.98-253.76,145.69-250.74,150.91
			c4.37,7.57,257.51-157.45,261.31-150.87c3.35,5.8-263.37,149.77-259.8,155.95c4.4,7.62,267.55-165.13,272.17-157.13
			c4.56,7.9-266.49,149.45-261.95,157.31c4.74,8.21,261.42-159.47,265.12-153.06c4.13,7.15-252.05,141.35-247.71,148.85
			c4.5,7.79,261.53-160.17,265.5-153.29c3.93,6.81-266.13,148.72-261.65,156.48c3.36,5.81,259.36-159.23,263.47-152.12
			c4.02,6.96-253.84,144.16-250.42,150.09c3.68,6.37,262.74-160.21,266.43-153.82c3.89,6.74-266.15,149.1-261.77,156.67
			c3.45,5.98,269.76-164.15,273.4-157.85c3.36,5.82-268.19,150.31-263.93,157.7c3.62,6.27,263.8-160.48,267.34-154.35
			C627.9,28.72,363.21,170.27,366.52,176c4.39,7.61,251.09-155.1,255.48-147.5c4.12,7.14-243.82,140.23-240.85,145.36
			c3.1,5.38,232.92-144.49,237.26-136.98c3.78,6.55-235.68,133.71-231.94,140.18C390.47,184,622.99,32.43,626.48,38.48
			c2.87,4.97-227.36,128.56-223.55,135.16c3.18,5.5,215.93-131.45,218.87-126.36c2.97,5.14-217,123.74-213.88,129.16
			c3.24,5.61,206-126.55,209.3-120.84c2.65,4.59-202.67,115.94-199.54,121.37c2.94,5.09,201.86-124.08,205.12-118.43
			c3.02,5.24-201.27,113.94-197.92,119.74c2.58,4.46,190.29-116.29,193.07-111.47c2.09,3.62-177.87,102.66-175.22,107.24
			c2.39,4.13,171.59-106.3,174.72-100.88c2.42,4.19-165.81,97.38-163.82,100.84c2.38,4.12,165.57-100.5,167.69-96.82
			c2.32,4.02-161.16,93.99-159.02,97.7c2.42,4.19,150.25-93.26,153.07-88.38c1.78,3.08-142.52,84.09-140.61,87.39
			c2.45,4.25,141.99-87.03,144.18-83.24c2.3,3.99-141.41,82.29-139.03,86.42c1.76,3.05,136.02-82.62,137.79-79.56
			c2.13,3.69-124.82,74.05-123.28,76.72c2.35,4.07,119.63-74.25,121.87-70.36c2.02,3.5-115.45,69.71-114.05,72.14
			c1.75,3.03,111.93-69.19,113.91-65.77c1.43,2.48-106.8,64-105.5,66.26c1.61,2.79,105.02-65.29,107.03-61.8
			c1.54,2.67-97.29,58.16-95.87,60.62c1.79,3.09,90.85-56.63,92.66-53.5c1.21,2.1-83.23,50.6-81.91,52.87
			c1.63,2.82,79.8-48.8,80.98-46.75c1.17,2.03-71.42,44.99-70.39,46.78c1.36,2.36,73.1-45.03,74.32-42.91
			c1.21,2.1-72.32,45.5-71.28,47.29c1.27,2.19,66.14-40.7,67.23-38.82c0.79,1.38-51.05,33.71-50.22,35.14
			c0.9,1.57,51.78-31.8,52.61-30.37c0.48,0.83-38.97,26.72-38.31,27.86c0.78,1.34,31.55-20,32.32-18.66
			c0.46,0.79-26.15,20.24-25.71,21c0.64,1.1,23.63-14.79,24.13-13.93c0.24,0.42-15.59,14.07-15.3,14.58
			c0.37,0.63,23.98-14.81,24.4-14.09c0.32,0.55-16.87,14.59-16.62,15.02c0.3,0.52,9.97-6.42,10.26-5.92
			c0.14,0.24-8.04,10.16-7.89,10.42c0.28,0.49,10.96-6.98,11.24-6.49"/>
		<path class="st3" d="M31.88,173.42C35.07,178.93,288.32,15.9,292.42,23c3.09,5.34-256.49,145.08-252.6,151.83
			c3.24,5.62,261.05-160.2,265.15-153.09C308.94,28.61,34.9,172.49,39.41,180.3c3.73,6.47,271.39-166.06,275.45-159.03
			c3.49,6.04-275.39,155.1-271.43,161.96c3.72,6.45,273.08-167.92,277.52-160.22c3.58,6.2-270.89,153.9-267.43,159.9
			C58.46,191.47,332.5,12.6,336.5,19.53c4.48,7.75-281.83,157.84-277.14,165.97c3.6,6.24,276.41-170.4,281.1-162.29
			c3.79,6.57-268.52,151.91-264.77,158.41c4.89,8.48,277.3-170.33,281.73-162.65C361.54,26.11,77,177.71,80.91,184.49
			c3.88,6.73,280.07-170.62,283.93-163.93c4.9,8.49-286.15,161.78-282.2,168.63c4.9,8.49,283.22-172.5,287.11-165.77
			c3.45,5.98-280.63,159.08-276.97,165.42c5.09,8.82,288.01-176.02,292.23-168.72c3.9,6.75-273.98,154.04-269.64,161.57
			c3.92,6.8,277.19-168.55,280.88-162.16c4.52,7.83-276.18,155.05-271.9,162.46c4.48,7.76,271.08-164.53,274.55-158.51
			c3.18,5.51-259.65,147.46-255.91,153.95c3.66,6.33,263.07-161.95,267.43-154.4c3.54,6.13-267.2,150-262.8,157.63
			c4.82,8.34,273.91-167.42,277.93-160.46c3.61,6.25-271.86,152.29-267.54,159.79c4.57,7.91,274.38-166.36,277.83-160.4
			c4.37,7.57-274.32,155.47-270.6,161.9c3.79,6.56,271.33-165.7,275.25-158.91c3.17,5.49-265.19,150.27-261.45,156.75
			c4.24,7.35,268.55-164.23,272.53-157.34c3.14,5.43-264.72,149.23-260.61,156.35c4.5,7.79,272-165.67,275.74-159.2
			c4.21,7.29-272.86,155.3-269.63,160.88c4.45,7.71,272.92-166.37,276.73-159.77c4.7,8.15-279.76,158.63-276.05,165.06
			c0.16,0.27,9.02-5.59,9.19-5.3"/>
		<path class="st3" d="M16,21.43c0.05,0.09,3.29-2.04,3.35-1.93c0.08,0.14-1.42,6.35-1.33,6.51c0.19,0.32,7.46-4.86,7.7-4.44
			c0.08,0.14-0.23,6.3-0.17,6.42c0.35,0.61,7.67-5.15,7.98-4.61c0.32,0.55-15.51,14.42-15.2,14.95
			c0.59,1.03,24.29-15.02,24.72-14.27c0.3,0.52-20.66,17.06-20.35,17.6c0.76,1.31,32.63-20.41,33.31-19.23
			c0.63,1.1-38.8,26.18-38.11,27.37c0.68,1.17,42.93-26.7,43.76-25.26c0.61,1.06-36.27,24.98-35.69,25.98
			c0.98,1.7,45.54-28.02,46.28-26.72c0.83,1.43-50.23,32.67-49.39,34.13c1.2,2.07,63.35-38.68,64.26-37.1
			c1.14,1.97-69.98,43.52-68.97,45.28c1.42,2.47,75.75-46.67,77.02-44.46c1.05,1.81-77.22,47.99-76.05,50.01
			c1.61,2.79,83.39-51.41,84.81-48.96c1.01,1.75-81.76,50.34-80.54,52.45c1.78,3.08,94.01-58.44,95.81-55.32
			c1.18,2.04-94.87,57.15-93.51,59.51c1.49,2.57,95.45-59.04,97.15-56.09c1.51,2.61-103.25,61.64-101.64,64.43
			c1.58,2.73,115.77-70.25,117.25-67.69c1.5,2.59-124.3,73.23-122.22,76.84c2.15,3.73,128.56-79.01,130.64-75.42
			c1.78,3.08-125.45,73.1-123.43,76.6C25.33,101.24,148.6,20,151.06,24.27c2.07,3.59-131.96,78.04-130.03,81.38
			c2.43,4.21,139.54-86.51,142.12-82.05c1.8,3.11-139.5,80.61-137.24,84.53c2.84,4.93,148.85-92.18,151.55-87.5
			c2.18,3.78-161.76,93.17-159.28,97.46c2.74,4.74,167.9-101.92,170.06-98.18c2.17,3.77-173.36,100.5-171.17,104.31
			c2.17,3.75,178.4-108.98,180.98-104.49c2.58,4.46-179.85,104.44-177.65,108.25c2.31,4.01,179.52-109.76,182.17-105.18
			c2.15,3.73-184.76,107.16-182.55,110.98c3.03,5.24,191.63-116.68,194.25-112.15c2.27,3.93-196.37,111.79-193.21,117.26
			c2.73,4.73,204.8-124.33,207.44-119.77C231.9,24.99,17,140.1,20.22,145.66c2.89,5,207.04-127.22,210.37-121.46
			c2.87,4.97-212.96,122.65-210.33,127.19c3.73,6.45,218.38-133.75,221.7-128c3.02,5.24-222.01,127.78-219.31,132.46
			c3.03,5.25,226.13-140.02,230.23-132.92c3.14,5.44-235.33,133.57-231.85,139.6c3.21,5.56,238.46-144.66,241.49-139.42
			c3.31,5.74-246.82,141.07-243.79,146.33c3.22,5.59,249.86-154.49,254.29-146.81c4.02,6.95-255.29,144.12-251.35,150.94
			C26,181.06,285.26,12.23,289.22,19.1"/>
	</g>
</g>
</svg>
