<?xml version="1.0" encoding="utf-8"?>
<!-- Generator: Adobe Illustrator 24.0.1, SVG Export Plug-In . SVG Version: 6.00 Build 0)  -->
<svg version="1.1" id="Layer_1" xmlns="http://www.w3.org/2000/svg" xmlns:xlink="http://www.w3.org/1999/xlink" x="0px" y="0px"
	 viewBox="0 0 209.27 193.6" style="enable-background:new 0 0 209.27 193.6;" xml:space="preserve">
<style type="text/css">
	.st0{opacity:0.37;}
	.st1{fill:none;stroke:#29ABE2;stroke-width:8;stroke-linecap:round;stroke-linejoin:round;}
	.st2{fill:none;stroke:#000000;stroke-width:8;stroke-linecap:round;stroke-linejoin:round;}
</style>
<g class="st0">
	<g>
		<path class="st1" d="M162.72,21.69c0.63-0.2-14.38-11.13-13.78-11.31c0.44-0.14,12.89,7.24,13.34,7.09
			c0.55-0.17-6.41-4.57-5.79-4.76c0.25-0.08,9.39,4.31,9.69,4.22c0.39-0.12-4.58-3.43-4.29-3.52"/>
		<path class="st1" d="M173.41,55.07c2.2-0.68-50.01-38.68-47.89-39.33c2.47-0.76,50.43,40.37,52.77,39.64
			c2.43-0.75-52.25-40.76-50.35-41.35c1.62-0.5,47.36,37.57,49.57,36.89c1.86-0.57-47.74-36.27-45.14-37.08
			c1.58-0.49,43.77,34.56,45.85,33.92c2.07-0.64-47.65-36.36-45.19-37.12c1.63-0.51,49.46,38.81,51.37,38.22
			c2.13-0.66-50.37-39.35-48.59-39.9c2.1-0.65,44.26,34.99,46.32,34.35c2.39-0.74-39.79-30.44-37.81-31.05
			c1.55-0.48,39.65,30.73,41.47,30.17c1.96-0.6-42.65-32.56-40.47-33.23c1.46-0.45,38.5,29.38,39.97,28.92
			c0.72-0.22-12.39-9.04-11.39-9.35"/>
		<path class="st1" d="M109.01,179.52c0.39-0.12-1.37-0.69-0.99-0.81c0.21-0.06,7.51,2.18,7.66,2.14
			c3.83-1.19-100.28-76.63-95.22-78.2c4.91-1.52,100.68,83.38,104.59,82.18c4.36-1.35-110.86-86.31-106.67-87.61
			c4.91-1.52,106.18,88.48,111.04,86.98c5.13-1.59-117.08-90.36-111.96-91.95c5.41-1.68,110.05,92.11,114.82,90.63
			c4.76-1.47-118.21-91.44-113.22-92.98c5.15-1.59,109.36,92.36,114.86,90.65c6.12-1.9-122.02-95.23-117.62-96.6
			c4.07-1.26,119.07,99.16,123.5,97.79c4.52-1.4-125.94-96.88-120.15-98.67c5.6-1.73,119.39,98.55,123.65,97.23
			c4.7-1.45-126.06-96.93-120.23-98.73c4.48-1.38,118.23,98.51,122.69,97.13c5.72-1.77-127.07-99.25-122.55-100.64
			c5.86-1.82,122.57,103.34,128.29,101.57c4.62-1.43-128.17-99.32-122.92-100.95c5.72-1.77,119.31,99.63,124.22,98.11
			c5.82-1.8-146.4-113.25-140.23-115.16c7.02-2.17,139.32,116.65,144.68,114.99C163.53,174.66,2.62,55.57,7.88,53.94
			c6.58-2.04,142.77,120.78,149.7,118.64C164.3,170.5,3.94,54,10.66,51.92c5.11-1.58,142.96,120.81,149.23,118.87
			C165.25,169.13,4.22,50.05,10.51,48.1c6.26-1.94,143.47,121.04,149.88,119.06c6.08-1.88-156.4-119.56-148.54-121.99
			c6.23-1.93,145.25,121.65,150.61,119.99c6.95-2.15-154.72-119.1-147.68-121.28c6.06-1.88,146.63,123.23,153.02,121.25
			C174.79,162.97,8.02,42.87,15.94,40.42C22.86,38.28,166.33,165.8,171.5,164.2C177.82,162.24,9.12,37.33,14.86,35.56
			c7.51-2.32,149.69,125.77,156,123.82c5.58-1.73-158.02-122.64-151.72-124.59c7.51-2.32,146.41,125.04,153.93,122.72
			c7.04-2.18-164.6-126.02-156.5-128.53c6.74-2.09,154.14,131.11,161.54,128.82c7.34-2.27-166.4-127.31-158.14-129.87
			c6.79-2.1,156.32,131.65,162.48,129.74c7.48-2.31-169.3-130.65-161.88-132.94c7.44-2.3,155.7,130.64,162.06,128.67
			c5.95-1.84-168.01-130.39-161.29-132.46c5.69-1.76,158.77,133.87,165.2,131.88c7.02-2.17-167.51-128.88-159.83-131.26
			c6.79-2.1,154.89,132.2,162.94,129.71C196.19,149.24,23.13,22,29.76,19.95c5.65-1.75,155.28,132.19,162.83,129.85
			c7.79-2.41-164.35-128.59-158.7-130.34C39.95,17.58,188.4,148.88,194.48,147C202.67,144.47,30.59,21.3,38.45,18.86
			c7.3-2.26,149.97,127.16,157.2,124.93C202.09,141.8,33.78,17.89,40,15.96c6.81-2.11,150.48,126.54,156.79,124.58
			c6.01-1.86-157.61-122.03-151.06-124.05c6.93-2.14,145.53,122.72,151.65,120.83c6.65-2.06-152.26-117.24-145.35-119.37
			c5.56-1.72,126.98,107.77,133.29,105.82c6.67-2.06-131.65-102.73-126.89-104.2c6.3-1.95,125.26,106.54,131.75,104.53
			c5.35-1.66-133.76-104.42-128.96-105.91C66,16.71,184.79,121.04,189.46,119.59c4.56-1.41-127.43-97.83-121.4-99.7
			c4.67-1.45,119.13,100.16,125.05,98.32c5.96-1.84-129.73-101.05-124.87-102.55c5.12-1.59,120.3,100.81,125.99,99.04
			c6.23-1.93-126.74-97.26-120.71-99.13c4.85-1.5,119.42,99.22,123.95,97.82c5.19-1.6-129.73-99.82-123.78-101.66
			c5.2-1.61,118.52,98.47,123.2,97.02c5.4-1.67-122.57-94.5-117.12-96.18c4.58-1.42,116.05,95.89,120.2,94.61
			c4.75-1.47-118.75-91.74-113.63-93.32c4.04-1.25,111.21,92.07,115.13,90.85c5.53-1.71-115.67-89.57-110.87-91.05
			c3.7-1.15,106.55,89.84,112.05,88.14c5.32-1.65-114.67-89.78-110.79-90.99c4.01-1.24,94.27,77.69,98.34,76.43
			c4.67-1.42-94.76-72.77-90.27-74.16c4.41-1.36,88.88,72.79,92.54,71.65c4.15-1.29-89.57-69.63-86.1-70.71
			c4.1-1.27,85.92,70.85,89.8,69.65c3.69-1.14-87.31-66.88-83.04-68.2c3.31-1.02,78.5,64.09,81.81,63.07
			c2.88-0.89-78.61-60.68-75.18-61.75c2.71-0.84,71.49,58.44,74.65,57.46c3.07-0.95-76.38-58.59-72.71-59.72"/>
		<path class="st1" d="M64.99,175.22c0.43-0.13-6.82-5.12-6.4-5.26c0.49-0.15,12.77,6.91,13.13,6.8
			c0.67-0.21-13.52-10.38-12.88-10.58c0.58-0.18,14.99,9.25,15.51,9.09c2.65-0.82-58.33-44.38-55.22-45.35
			c2.44-0.75,60.04,47.59,62.11,46.95c2.56-0.79-64.82-50.63-62.52-51.34c2.92-0.9,62.57,50.57,65.3,49.72
			c2.66-0.82-68.63-52.85-65.52-53.81c2.9-0.89,64.92,52.9,68.14,51.9c3.53-1.09-68.9-52.58-65.36-53.68
			c2.64-0.82,68.8,55.24,71.49,54.41c3.53-1.09-71.25-55.58-68.65-56.38c3.42-1.06,68.99,55.74,71.85,54.86
			c3.4-1.05-70.96-54.62-67.72-55.62c3.32-1.03,67.03,53.62,69.54,52.84c3.73-1.15-80.04-61.95-76.69-62.98"/>
		<path class="st1" d="M36.72,158.31c0.36-0.11-2.44-1.59-2.07-1.71c0.21-0.07,8.11,3.08,8.32,3.02c0.71-0.22-11.29-8.48-10.59-8.7
			c0.66-0.2,17.66,10.86,18.34,10.65c1.18-0.37-20.7-15.67-19.52-16.03"/>
	</g>
</g>
<g>
	<g>
		<g>
			<path class="st2" d="M61.14,51.25c0.92,1.6-1.07-1.89,0.01-0.01c0.01,0.02-0.21,0.57-0.18,0.62c0.8,1.38,2.69-3.45,3.51-2.03
				c0.1,0.17-8.14,4.59-7.92,4.97c1.3,2.26,3.79-5.23,5.11-2.95c0.16,0.28-2.07,1.73-2.06,1.76c0.24,0.42,8.85-7.26,9.78-5.65
				c0.34,0.58-7.13,3.53-6.8,4.1c0.75,1.3,4.62-3.37,4.92-2.84c0.28,0.48-2.9,1.23-2.7,1.57c1.11,1.93,2.06-2.16,2.48-1.43
				c0.21,0.37-2.62,1.63-2.58,1.71c0.8,1.39,3.24-4.77,4.49-2.59c0.01,0.02-0.32,0.64-0.27,0.72c0.52,0.9,0.52-1.17,0.9-0.52
				c0.29,0.5-5.92,2.54-5.51,3.25c0.35,0.61,1.62-1.28,1.77-1.02c0.21,0.36-3.11,1.5-2.94,1.8c0.39,0.67,6.28-4.31,6.58-3.8
				c0.18,0.32-5.4,2.25-4.96,3.02c0.48,0.83,1.61-1.12,1.69-0.98c0.59,1.02-6.33,2.45-5.73,3.48c0.17,0.29,5.21-5.55,6.31-3.64
				c0.07,0.12-1.58,1.07-1.53,1.15c0.78,1.34,1.19-1.51,1.55-0.9c0.04,0.06-1.42,0.67-1.29,0.9c0.26,0.44,0.45-2.67,1.49-0.86
				c0.02,0.03-1.51,0.68-1.4,0.86c0.45,0.78,0.62-2.33,1.47-0.85c0.1,0.18-1.77,0.76-1.63,1c0.42,0.72,2.47-3.62,3.42-1.97
				c0.01,0.01-2.83,1.71-2.75,1.84c0.47,0.81,1.14-1.17,1.36-0.78c0.07,0.12-1.56,0.93-1.53,0.99c0.36,0.62-0.09-2.17,0.87-0.5
				c0.07,0.13-1.4,0.84-1.35,0.93c1.27,2.19,5.22-5.94,6.49-3.74c0.44,0.77-5.67,2.29-5.18,3.13c0.61,1.06,0.64-1.7,1.21-0.7
				c0.11,0.19-3.45,1.72-3.16,2.23c0.89,1.55,4.86-3.77,5.28-3.05c0.14,0.24-5.24,2.41-4.86,3.08c0.82,1.42,6.66-5.53,7.39-4.27
				c0.21,0.36-6.67,3.68-6.56,3.87c1.23,2.12,2.95-2.9,3.47-2c0.08,0.14-1.38,0.99-1.29,1.14c0.88,1.53,5.23-5.31,6.22-3.59
				c0.19,0.32-5.75,3.15-5.64,3.33c0.25,0.44,0.62-0.67,0.75-0.44c0.49,0.84-4.97,2.72-4.9,2.84c0.25,0.44,8.67-6.17,9.17-5.3
				c0.58,1.01-8.37,3.48-7.67,4.7c0.51,0.89,0.61-0.95,0.87-0.5c0.1,0.17,2.67-1.35,2.74-1.24c0.71,1.23,0.12-1.07,0.55-0.32
				c0.06,0.1-3.68,1.44-3.34,2.03c0.66,1.14,6.47-6.35,7.6-4.39c0.34,0.59-5.76,2.57-5.31,3.35c0.5,0.86,5.27-5.16,6.18-3.57
				c0.37,0.64-5.09,2.16-4.61,2.98c0.85,1.47,0.22-0.29,0.29-0.17c0.39,0.67-4.62,2.06-4.27,2.66c0.49,0.84,7.03-5.7,7.74-4.47
				c0.54,0.94-6.89,4.13-6.84,4.22c0.16,0.28,5-5.04,5.93-3.42c0.14,0.24-1.96,0.83-1.79,1.12c0.1,0.17,3.71-4.17,4.59-2.65
				c0.14,0.25-4.81,2.27-4.5,2.81c0.48,0.83-0.68-1.21,0.02-0.01c0,0,0.01,0.01,0.01,0.01c0.28,0.48-1.03-1.81,0.01-0.01
				c0.01,0.03,0.09,0.16,0.1,0.18c0.35,0.6,0.03-2.51,1.11-0.64c0.35,0.61-5.52,3.33-5.38,3.57c0.9,1.56,9.86-6.43,10.18-5.88
				c0.33,0.58-7.89,4.29-7.72,4.57c0.33,0.57,3.97-4.71,5.02-2.9c0.12,0.21-2.06,1.24-1.89,1.53c0.08,0.13,1.54-2.69,2.32-1.34
				c0.67,1.16-7.19,3.1-6.54,4.22c0.51,0.88,9.25-6.95,9.95-5.75c0.53,0.92-9.99,5.24-9.68,5.79c0.68,1.19,9.18-6.92,9.88-5.71
				c0,0.01-0.49,0.46-0.49,0.47c0.95,1.65-0.42-0.92,0.09-0.05c0.15,0.25-4.02,1.64-3.68,2.23c0.59,1.02,3.31-2.09,3.39-1.96
				c0.47,0.82-8.98,4.03-8.34,5.14c0.01,0.02,8.61-7.42,9.67-5.58c0.62,1.07-9.45,4.92-9.01,5.68c0.86,1.48,9.19-6.04,9.51-5.49
				c0.57,0.98-6.34,3.18-6.08,3.62c0.94,1.63,0.6-0.51,0.67-0.39c0.02,0.03-3.54,1.59-3.19,2.19c0.77,1.33,1.51-1.25,1.68-0.97
				c0.03,0.05,0.43,0.29,0.44,0.31c0.21,0.36,3.11-3.36,3.79-2.19c0.23,0.4-4.97,2.26-4.63,2.85c0.05,0.08,8.37-5.05,8.47-4.89
				c0.2,0.34-8.86,5.1-8.61,5.53c0.68,1.17,8.34-6.95,9.26-5.35c0.52,0.9-9.57,4.7-9.17,5.37c0.16,0.28,8.8-6.12,9.25-5.34
				c0.21,0.37-9.6,4.25-8.92,5.44c0.79,1.37,8.83-5.96,9.2-5.31c0.15,0.26-9.52,4.16-8.78,5.43c0.09,0.16,8.51-6.29,9.11-5.26
				c0.86,1.49-9.81,3.89-9,5.29c0.95,1.64,8.3-6.61,9.08-5.24c0.7,1.21-9.29,4.48-8.8,5.33c0.76,1.32,8.55-6.02,9.02-5.21
				c0.77,1.33-9.37,4.3-8.81,5.27c0.71,1.23,8.82-5.44,8.97-5.18c0.13,0.22-5.13,3.12-5.11,3.15c0.19,0.34,0.9-0.68,0.97-0.56
				c0.02,0.04,0.6-0.2,0.62-0.17c0.33,0.58,1.52-2.26,2.12-1.22c0.07,0.11-0.98,0.43-0.9,0.56c0.9,1.56,0.27-0.22,0.3-0.17
				c0.39,0.68-5.92,3.83-5.89,3.89c0.76,1.32,4-2.92,4.27-2.46c0.28,0.48-3.8,2.64-3.79,2.66c0.25,0.43,8.03-6.11,8.67-5.01
				c0.21,0.37-8.82,4.56-8.52,5.07c0.72,1.24,8.06-6.03,8.66-5c0.36,0.62-8.89,4.35-8.47,5.09c0.13,0.23,8.35-5.51,8.65-4.99
				c0.33,0.58-8.76,4.32-8.27,5.17c0.2,0.35,8.07-5.94,8.63-4.98c0.75,1.31-8.83,4.16-8.25,5.16c0.06,0.11,8.5-5.15,8.6-4.97
				c0.42,0.74-8.38,4.71-8.1,5.2c0.75,1.31,8.5-4.91,8.5-4.91c0.84,1.46-8.9,3.79-8.16,5.07c0.74,1.28,8.4-4.94,8.44-4.87
				c0.11,0.19-8.26,4.61-7.98,5.08c0.28,0.48,7.96-5.5,8.35-4.82c0.53,0.92-9.03,3.63-8.34,4.83c0.56,0.97,7.54-6.23,8.35-4.82
				c0.66,1.14-7.58,4.42-7.55,4.48c0.04,0.06,3.66-3.59,4.3-2.48c0.02,0.03-0.57,0.75-0.56,0.78c0.12,0.2,3.48-2.51,3.69-2.13
				c0.79,1.37-8.33,3.26-7.65,4.45c0.14,0.24,7.47-6.08,8.23-4.75C88,54.76,79.42,58.2,79.88,59c0.65,1.13,7.39-5.97,8.12-4.69
				c0.15,0.26-8.22,4.17-7.84,4.82c0.6,1.04,7.38-5.85,8.07-4.66c0.29,0.51-8.08,4.44-7.91,4.73c0.25,0.43,7.63-5.34,8.04-4.64
				c0,0.01-8.67,3.52-8.01,4.65c0.41,0.71,8.02-4.66,8.03-4.64c0.04,0.08-8.46,3.52-7.7,4.84c0.16,0.28,7.7-5.15,8-4.62
				c0.45,0.79-8.09,4.41-7.95,4.66c0.37,0.64,7.66-5.22,8-4.62c0.58,1-6.4,3.54-6.13,4c0.3,0.52,1.51-1.27,1.68-0.97
				c0.11,0.2-1.97,1.38-1.94,1.43c0.4,0.69,4.71-4.68,5.56-3.21c0.21,0.36-6.74,3.23-6.34,3.92c0.45,0.77,7.77-4.93,7.96-4.6
				c0.48,0.84-8.56,3.5-7.91,4.64c0.64,1.11,7.34-5.66,7.95-4.59c0.03,0.05-5.63,2.36-5.14,3.22c0.12,0.21,1.69-1.92,2.1-1.21
				c0.41,0.71-4.72,2.65-4.65,2.77c0.84,1.45,7.8-4.75,7.91-4.56c0.26,0.45-8.31,3.83-7.87,4.59c0.24,0.42,7.19-5.79,7.9-4.56
				c0.04,0.07-8.32,3.75-7.83,4.61c0.49,0.85,7.5-5.23,7.89-4.55c0.56,0.98-7.85,4.35-7.63,4.72c0.11,0.19,7.03-5.94,7.84-4.53
				c0.19,0.32-2.6,1.27-2.36,1.67c0.56,0.98,1.09-0.93,1.22-0.71c0.37,0.65-6.45,3.33-6.08,3.98c0.65,1.13,7.66-4.58,7.73-4.46
				c0.6,1.04-8.27,3.27-7.49,4.62c0.05,0.09,7.68-4.45,7.69-4.44c0.77,1.33-8.11,3.47-7.44,4.63c0.44,0.76,6.92-5.71,7.66-4.42
				c0.36,0.62-8.18,3.46-7.58,4.49c0.5,0.86,7.31-5.02,7.66-4.42c0.32,0.56-7.33,4.66-7.27,4.77c0.17,0.3,7.45-4.76,7.65-4.41
				c0.18,0.32-7.65,4.34-7.56,4.49c0.38,0.66,7.29-5.03,7.64-4.41c0.17,0.29-7.61,4.31-7.46,4.58c0.38,0.67,7.41-4.81,7.64-4.41
				c0.18,0.31-8.12,3.35-7.38,4.64c0.76,1.32,7.4-4.8,7.63-4.41c0.38,0.66-7.68,4.18-7.46,4.56c0.67,1.15,6.79-5.85,7.63-4.4
				c0.6,1.05-7.35,4.63-7.32,4.68c0.2,0.35,6.76-5.88,7.62-4.4c0.74,1.28-7.68,4.28-7.61,4.41c0.31,0.53,7.39-4.8,7.62-4.4
				c0.14,0.24-7.71,4.16-7.52,4.48c0.65,1.13,7.41-4.76,7.62-4.4c0.34,0.58-7.65,4.18-7.42,4.58c0.46,0.8,7.17-5.1,7.59-4.38
				c0.4,0.68-4.43,1.87-4.03,2.57c0.32,0.56-0.17-0.88,0.26-0.15c0.08,0.13,0.81-0.3,0.86-0.21c0.83,1.44,0.78-1.07,1.05-0.6
				c0.08,0.14-5.23,3.16-5.16,3.29c0.7,1.21,7.04-5.11,7.49-4.33c0.23,0.39-7.64,4.03-7.43,4.4c0.22,0.39,7.24-4.76,7.49-4.32
				c0.14,0.24-7.69,3.85-7.24,4.63c0.18,0.31,7.48-4.34,7.49-4.32c0.62,1.07-7.23,4.61-7.17,4.71c0.33,0.58,7.32-4.62,7.49-4.32
				c0.37,0.65-7.67,3.93-7.36,4.48c0.64,1.11,7.3-4.65,7.49-4.32c0.37,0.63-5.3,2.13-4.82,2.96c0.61,1.06,2.23-2.66,2.82-1.63
				c0.55,0.96-5.65,2.58-5.26,3.25c0.75,1.29,6.86-5.4,7.48-4.32c0.07,0.11-7.75,3.72-7.2,4.67c0.58,1.01,7.11-4.97,7.48-4.32
				c0.61,1.05-7.69,3.86-7.3,4.54c0.3,0.52,6.82-5.47,7.48-4.32c0.31,0.54-7.13,3.58-6.67,4.39c0.04,0.07,6.74-4.28,6.91-3.99
				c0.58,1.01-7.67,3.8-7.31,4.43c0.17,0.3,6.74-5.6,7.48-4.32c0.38,0.65-7.7,3.85-7.2,4.71c0.24,0.42,7.45-4.41,7.5-4.33
				c0.02,0.03-7.77,3.47-7.31,4.26c0.79,1.36,1.47-2.79,2.31-1.33c0,0,0.28-0.01,0.3,0.01c0.81,1.4,2.5-2.64,3.02-1.74
				c0.53,0.91-5.99,2.78-5.59,3.47c0.42,0.72,6.98-5.24,7.5-4.33c0.54,0.94-7.95,3.55-7.43,4.45c0.66,1.14,7.32-4.66,7.5-4.33
				c0.71,1.23-8.06,3.37-7.42,4.48c0.2,0.35,6.68-5.77,7.51-4.33c0.48,0.83-7.87,3.7-7.42,4.48c0.21,0.36,7.3-4.7,7.51-4.33
				c0.58,1.01-7.96,3.54-7.35,4.59c0.36,0.62,6.96-5.29,7.51-4.34c0.67,1.15-7.38,4.55-7.37,4.57c0.22,0.38,6.7-5.75,7.52-4.34
				c0,0.01-5.94,3.37-5.68,3.83c0.66,1.14-0.08-0.93,0.34-0.2c0.09,0.15-1.89,1.19-1.75,1.43c0.49,0.85,6.88-5.46,7.53-4.34
				c0.35,0.61-7.72,3.99-7.32,4.68c0.35,0.61,7.52-4.36,7.53-4.35c0.19,0.33-7.74,3.99-7.48,4.43c0.81,1.4,7.36-4.65,7.53-4.35
				c0.25,0.43-7.75,3.79-7.39,4.42c0.55,0.94,1.82-1.33,1.94-1.12c0.15,0.26-2.15,0.92-1.97,1.23c0.68,1.17,7.42-4.55,7.53-4.35
				c0.26,0.46-7.51,4.49-7.39,4.71c0.55,0.95,6.91-5.54,7.59-4.38c0.34,0.59-7.93,3.86-7.47,4.65c0.1,0.18,7.21-5.13,7.63-4.4
				c0.78,1.36-8.08,3.73-7.46,4.8c0.76,1.32,7.17-5.34,7.69-4.44c0.18,0.3-8.29,3.44-7.61,4.62c0.69,1.19,7.24-5.25,7.7-4.45
				c0.04,0.07-2.44,1.54-2.38,1.65c0.06,0.11,1.87-2.09,2.31-1.33c0.56,0.96-7.59,4.39-7.37,4.77c0.11,0.19,7.21-5.34,7.72-4.46
				c0.63,1.08-8.12,3.84-7.57,4.8c0.4,0.7,7.15-5.46,7.72-4.46c0.44,0.76-7.71,4.58-7.58,4.79c0.29,0.5,7.6-4.7,7.73-4.46
				c0.51,0.89-8.15,3.78-7.68,4.6c0.62,1.08,7.19-5.42,7.74-4.47c0.06,0.1-8.09,3.96-7.58,4.84c0.51,0.89,7.5-4.9,7.74-4.47
				c0.79,1.36-7.96,4.22-7.66,4.73c0.64,1.11,7.7-4.61,7.77-4.49c0.49,0.85-7.94,4.35-7.69,4.79c0.59,1.03,7.69-4.73,7.82-4.51
				c0.42,0.73-5.88,2.55-5.46,3.27c0.44,0.76,5.18-3.22,5.28-3.05c0.49,0.86-7.56,4.64-7.51,4.73c0.4,0.69,7.22-5.68,7.88-4.55
				c0.31,0.53-8.04,4.39-7.82,4.76c0.56,0.97,7.04-6.07,7.91-4.57c0.45,0.78-8.08,4.52-7.78,5.05c0.41,0.71,7.47-5.48,7.98-4.61
				c0.66,1.15-6.77,3.47-6.45,4.02c0.79,1.36,0.17-0.79,0.47-0.27c0.09,0.16-2.02,1.1-1.84,1.42c0.04,0.06,7.61-5.42,8.06-4.65
				c0.83,1.44-8.43,4.07-8.02,4.77c0.38,0.65,7.19-6.18,8.07-4.66c0.06,0.1-1.89,0.99-1.8,1.14c0.64,1.11-0.02-0.85,0.35-0.2
				c0.14,0.25-6.92,3.24-6.59,3.82c0.57,0.98,7.72-5.26,8.07-4.66c0.05,0.09-8.12,4.68-8.01,4.87c0.69,1.2,7.51-5.63,8.07-4.66
				c0.18,0.32-8.47,4.04-8.04,4.79c0.2,0.34,7.53-5.61,8.07-4.66c0.23,0.4-8.46,4.12-7.95,5c0.38,0.65,0.96-2.35,1.74-1
				c0.3,0.52,5.5-3.13,5.56-3.02c0.89,1.54,0.28-0.4,0.38-0.22c0.34,0.58-8.33,3.44-7.6,4.69c0.59,1.01,7.98-4.88,8.1-4.68
				c0.81,1.4-8.3,4.44-8.08,4.82c0.15,0.26,7.83-5.19,8.12-4.69c0.02,0.04-6.17,2.56-5.72,3.33c0.52,0.9-0.13-0.94,0.3-0.18
				c0.02,0.03-0.96,0.4-0.88,0.53c0.42,0.73,2.46-3.11,3.19-1.84c0.02,0.04-0.27,0.41-0.24,0.48c0.32,0.56,1.24-0.83,1.29-0.74
				c0.34,0.58-6.42,2.92-5.97,3.69c0.39,0.68,7.67-5.64,8.19-4.73c0.67,1.16-7.47,4.2-7.31,4.48c0.06,0.1,1.28-2.63,2.1-1.21
				c0.09,0.16,2.03-1.03,2.17-0.8c0.58,1.01,1-2.51,1.84-1.06c0.22,0.39-7.21,3.71-6.83,4.38c0.76,1.32,8.03-5.33,8.32-4.81
				c0.82,1.41-8.5,4.65-8.3,4.99c0.78,1.35,8.08-5.28,8.35-4.82c0.75,1.3-9.06,3.66-8.33,4.92c0.33,0.57,8.02-5.41,8.36-4.83
				c0.24,0.42-3.92,2.35-3.77,2.61c0.1,0.18,0.18-1.59,0.82-0.47c0.07,0.12-3.09,1.6-2.86,1.99c0.16,0.28,1.04-2.6,1.9-1.1
				c0.04,0.08-4.7,1.96-4.33,2.6c0.48,0.83,8.24-5.27,8.46-4.89c0.27,0.48-8.96,4.13-8.44,5.04c0.29,0.5,7.63-6.36,8.48-4.9
				c0.21,0.37-8.62,4.83-8.45,5.13c0.08,0.15,8.17-5.5,8.51-4.91c0.01,0.02-9.32,3.63-8.49,5.08c0.11,0.19,8.17-5.53,8.52-4.92
				c0.74,1.28-8.72,4.97-8.48,5.39c0.16,0.28,7.94-6,8.55-4.94c0.32,0.55-7.75,4.8-7.71,4.88c0.13,0.23,3.48-2.88,3.86-2.23
				c0.43,0.75-4.71,2.92-4.67,2.99c0.64,1.12,8.31-5.53,8.63-4.98c0.17,0.29-3.92,2.51-3.89,2.57c0.36,0.63,0.21-0.39,0.33-0.19
				c0.04,0.07-5.15,2.49-4.81,3.08c0.45,0.79,5.26-4.04,5.69-3.29c0.35,0.61-6.51,2.68-5.91,3.73c0.82,1.42,8.41-5.58,8.73-5.04
				c0.49,0.86-9.19,4.57-8.71,5.39c0.19,0.32,8.51-5.5,8.76-5.06c0.01,0.01-9.47,4.04-8.76,5.27c0.44,0.77,8.06-6.33,8.79-5.07
				c0.28,0.49-9.67,4.06-8.76,5.64c0.05,0.09,8.22-6.19,8.85-5.11c0.84,1.45-9.1,5.08-8.83,5.55c0.97,1.67,8.36-6.07,8.9-5.14
				c0.36,0.62-9.35,4.71-8.88,5.53c0.05,0.08,8.31-6.25,8.94-5.16c0.09,0.15-9.41,4.56-8.93,5.39c0.23,0.4,8.38-6.19,8.96-5.18
				c0.25,0.43-9.39,4.9-8.98,5.62c0.75,1.29,8.95-5.37,9.04-5.22c0.61,1.05-9.94,4.01-9.05,5.54c0.32,0.56,8.44-6.39,9.1-5.25
				c0.32,0.56-9.12,5.66-9.12,5.67c0.02,0.03,8.82-5.82,9.14-5.28c0.23,0.4-9.22,5.24-9.14,5.37c0.73,1.27,8.21-6.89,9.15-5.28
				c0.3,0.53-9.46,5.23-9.16,5.74c0.53,0.92,8.97-5.69,9.19-5.3c0.27,0.47-9.61,4.79-9.2,5.5c0.19,0.32,8.58-6.4,9.2-5.31
				c0.31,0.54-9.61,5.11-9.22,5.77c0.62,1.08,9.2-5.41,9.25-5.34c0.7,1.21-10.03,4.2-9.25,5.55c0.46,0.8,8.26-7.09,9.27-5.35
				c0.59,1.02-9.89,4.89-9.29,5.92c0.69,1.19,9.3-5.41,9.32-5.38c0.48,0.83-10.27,4.19-9.33,5.82c0.89,1.54,8.35-7.14,9.36-5.4
				c0.52,0.89-9.43,5.93-9.39,6.01c0.54,0.93,9.19-5.84,9.42-5.44c0.78,1.36-8.73,4.82-8.61,5.01c0.83,1.43,7.58-4.63,7.69-4.44
				c0.7,1.21-9.22,4.3-8.57,5.42c0.79,1.36,8.82-6.71,9.52-5.5c0.96,1.66-10.39,4.54-9.58,5.93c0.08,0.14,9.28-6.1,9.6-5.54
				c0.92,1.6-10.49,4.28-9.63,5.77c0.73,1.26,8.7-7.19,9.64-5.57c0.27,0.46-9.48,5.81-9.42,5.9c0.88,1.53,2.21-2.23,2.62-1.51
				c0.01,0.01,0.5-0.13,0.51-0.12c0.93,1.62,1.65-1.85,2.04-1.18c0.47,0.81-5.93,2.69-5.51,3.42c1.01,1.75,9.27-6.57,9.8-5.66
				c0.8,1.39-10.62,4.85-9.87,6.16c1.06,1.83,9.54-6.2,9.84-5.68c0.9,1.55-9.47,5.44-9.41,5.55c0.92,1.6,8.09-6.82,9.02-5.21
				c0.48,0.83-6.78,3.14-6.37,3.83c0.89,1.54,6.12-4.94,6.73-3.88c0.46,0.79-9.68,4.78-9.26,5.5c0.06,0.1,5.11-3.31,5.27-3.04
				c0.04,0.08-5.5,2.85-5.11,3.53c0.03,0.05,2.98-1.84,3.03-1.75c0.12,0.21-3.83,1.77-3.51,2.31c0.34,0.58,1.35-2.97,2.3-1.33
				c0.08,0.14-1.4,0.8-1.36,0.88c0.57,0.99,5.69-3.78,5.9-3.41c0.3,0.52-4.45,2.52-4.28,2.8c0.72,1.24-0.79-1.99,0.27-0.16
				c0.36,0.62-3.98,1.97-3.59,2.65c0.39,0.68,10.01-6.35,10.25-5.92c0.77,1.33-10.89,5.14-10.31,6.14c0.17,0.3,9.72-6.94,10.3-5.95
				c0.83,1.44-9.34,5.27-9.22,5.48c0.52,0.89,7.81-4.93,7.99-4.61c0.14,0.24-5.44,3.21-5.3,3.45c0.03,0.05,3.1-2.62,3.46-2
				c0.18,0.31-4.67,2.86-4.51,3.12c0.08,0.14,1.69-1.31,1.84-1.06c0.01,0.02-3,1.78-2.97,1.84c0.51,0.88-0.13-2.13,0.82-0.48
				c0.02,0.04,0.49-0.15,0.51-0.12c0.54,0.94,6.54-5.36,7.23-4.17c0.01,0.01-1.48,0.83-1.4,0.96c0.44,0.76,0.42-2.54,1.42-0.82
				c0.3,0.52-5.8,3.77-5.74,3.87c0.62,1.08-0.11-1.34,0.5-0.29c0.02,0.04-0.56,0.42-0.56,0.44c0.18,0.32-0.14-1.48,0.54-0.31
				c0.04,0.07-0.75,0.68-0.71,0.75c0.69,1.2,0.46-0.68,0.64-0.37c0.41,0.71-4.23,2.54-4.2,2.59c0.34,0.59,0.46-1.21,0.87-0.5
				c0.04,0.07,1.16-0.57,1.25-0.42c0.1,0.17,2.31-3.63,3.31-1.91c0.25,0.43-2.42,1.66-2.34,1.81c0.16,0.27,0.52-1.26,0.93-0.54
				c0.01,0.02,1.75-0.76,1.83-0.63c0.3,0.51,0.53-0.39,0.56-0.32c0.17,0.3-5.26,2.8-5.07,3.12c1.03,1.78,3.03-3.42,3.76-2.17
				c0.39,0.68-3.85,2.25-3.65,2.6c0.47,0.82-0.36-2.76,0.92-0.53c0.26,0.45-2.88,1.4-2.73,1.67c1.28,2.21,4.54-5.36,5.72-3.31
				c0.23,0.4-3.85,2.55-3.77,2.69c0.98,1.69,1.11-2.9,2.09-1.21c0.18,0.31-2.27,1.1-2.15,1.31c0.92,1.59,1.24-2.79,2.14-1.23
				c0.03,0.04-0.62,0.38-0.6,0.42c0.3,0.52,1.51-3.26,2.55-1.47c0.28,0.48-4.7,2.01-4.32,2.68c1.17,2.03,1.91-2.04,2.32-1.34
				c0.06,0.1,0.69-0.23,0.74-0.15c1.28,2.23,1.56-1.67,1.89-1.09"/>
			<path class="st2" d="M41.05,49.05c0.39,0.67,3.31-1.99,3.34-1.93c0.34,0.59-3.6,1.75-3.34,2.19c0.07,0.12,3.59-2.56,3.8-2.19
				c0.37,0.64-4.09,2.01-3.8,2.51c0.13,0.23,4.17-2.82,4.35-2.51c0.08,0.15-4.75,2.15-4.35,2.85c0.26,0.45,4.64-3.36,4.94-2.85
				c0.17,0.3-5.27,2.79-4.94,3.38c0.25,0.44,5.46-4.04,5.85-3.38c0.53,0.91-6.34,3.09-5.85,3.95c0.61,1.06,6.11-5.23,6.85-3.95
				c0.26,0.46-7.22,3.35-6.85,3.99c0.07,0.12,6.36-4.95,6.92-3.99c0.42,0.73-7.22,3.76-6.92,4.29c0.35,0.61,7.43-4.3,7.43-4.29
				c0.04,0.06-8.07,3.58-7.43,4.68c0.4,0.7,7.35-6.01,8.11-4.68c0.84,1.45-8.24,4.58-8.11,4.8c0.26,0.45,7.85-5.61,8.31-4.8
				c0.52,0.91-8.65,4.44-8.31,5.02c0.48,0.82,8.15-5.96,8.69-5.02c0.48,0.82-9.15,4.45-8.69,5.24c0.28,0.48,8.22-6.72,9.07-5.24
				c0.16,0.27-9.68,4.59-9.07,5.63c0.54,0.94,9.72-5.69,9.75-5.63c0.51,0.88-6.71,2.95-6.08,4.03c0.94,1.62,4.83-3.28,5.04-2.91
				c0.29,0.5-8.09,3.39-7.51,4.4c0.41,0.71,6.25-4.69,6.72-3.88c0.22,0.39-4.66,2.68-4.61,2.77c0.24,0.42,1.59-3.08,2.53-1.46
				c0.06,0.11,1.81-1.14,1.99-0.82c0.33,0.57,3.21-2.11,3.32-1.92c0.62,1.08-6.16,3.73-6.11,3.82c0.19,0.33-0.3-1.06,0.23-0.14
				c0.02,0.04-0.11,0.43-0.09,0.47c0.91,1.58,2.03-1.93,2.36-1.36c0.32,0.55-3.44,1.72-3.26,2.03c0.08,0.14,0.52-1.24,0.92-0.53
				c0.01,0.01,1.34-0.73,1.37-0.67c1.39,2.41,0.07-3.3,1.48-0.85c0.02,0.04,0.23,0.22,0.25,0.26c1.15,1.99,0.3-1.69,0.96-0.56
				c0.03,0.06-6.69,3.7-6.54,3.97c0.02,0.03,5.12-3.27,5.26-3.03c0.16,0.28-4.98,2.32-4.68,2.85c0.24,0.41,6.07-4.16,6.36-3.67
				c0.04,0.07-2.14,0.82-1.94,1.17c1.37,2.38,0.38-0.61,0.55-0.32c0.01,0.02-0.51,0.59-0.48,0.64c1.15,2,3.63-2.36,3.74-2.16
				c0.25,0.43-9.73,5.97-9.64,6.13c0.79,1.37,5.01-2.98,5.05-2.92c0.02,0.03-0.91,0.8-0.82,0.95c0.62,1.08,8.95-5.27,8.99-5.19
				c0.79,1.36-11.02,4.96-10.22,6.36c0.07,0.11,9.82-6.79,10.31-5.95c1.02,1.77-11.12,4.31-10.17,5.94
				c1.45,2.52,2.21-3.96,3.37-1.95c0.2,0.35-3.36,1.57-3.08,2.07c0.96,1.65,12.07-7.35,12.23-7.06c0.09,0.16-8.83,4.57-8.35,5.4
				c0.9,1.55,6.82-4.62,7.12-4.11c0.24,0.41-13,7.79-12.95,7.89c0,0.01,12.63-12.21,14.76-8.52c0.32,0.56-18.65,8.62-17.71,10.25
				c0.7,1.21,8.42-7.8,9.69-5.6c0.08,0.14-4.51,2.3-4.13,2.95c1.15,1.99,3.71-5.66,5.23-3.02c0.02,0.04-3.34,2.19-3.33,2.22
				c0.56,0.97,8.47-7.64,9.66-5.58c0.05,0.08-17.27,7.25-15.99,9.46c0.77,1.33,14.62-13.58,16.84-9.72
				c1.19,2.06-17.73,8.52-16.85,10.04c0.67,1.16,16.28-11.74,17.29-9.98c1.14,1.97-20.64,8.35-18.87,11.41
				c0.49,0.86,8.33-6.11,8.89-5.13c0.85,1.48-9.32,4.66-8.89,5.4c0.24,0.42,8.58-5.68,8.89-5.13c0.55,0.96-9.17,4.91-8.89,5.39
				c0.56,0.97,8.03-6.63,8.89-5.13c0.75,1.3-9.68,3.91-8.89,5.28c0.37,0.65,8.61-5.61,8.89-5.13c0.01,0.02-5.96,3.64-5.86,3.81
				c0.14,0.25,3.31-2.4,3.52-2.03c0.39,0.67-6.81,3.84-6.55,4.29c0.21,0.37,8.52-5.78,8.89-5.13c0.73,1.26-9.67,4.34-8.89,5.69
				c0.66,1.14,8.08-6.55,8.89-5.13c0.19,0.32-6.98,3.94-6.87,4.12c0.47,0.81,3.02-2.77,3.46-2c0.49,0.85-5.69,3.13-5.49,3.48
				c0.3,0.52,8.42-5.95,8.89-5.13c0.21,0.36-9.45,4.24-8.89,5.21c0.76,1.32,8.5-5.81,8.89-5.13c0.92,1.6-9.18,5.17-8.89,5.66
				c0.4,0.69,8.39-6,8.89-5.13c0.15,0.26-9.36,4.79-8.89,5.59c0.12,0.21,8.31-6.14,8.89-5.13c0.11,0.18-9.22,5.13-8.89,5.69
				c0.98,1.7,8.41-5.97,8.89-5.14c0.74,1.28-9.75,3.95-8.89,5.44c0.19,0.32,8.78-5.33,8.89-5.14c0.81,1.4-9.22,4.9-8.89,5.45
				c0.77,1.34,8.84-5.23,8.9-5.14c0.52,0.9-9.2,4.83-8.9,5.36c0.74,1.28,7.99-6.7,8.9-5.14c0.04,0.06-6.61,2.95-6.19,3.68
				c0.72,1.25,2.59-3.19,3.33-1.92c0.51,0.89-6.28,3.6-6.03,4.03c0.49,0.85,8.6-5.65,8.9-5.14c0.41,0.71-4.27,2.14-3.99,2.61
				c0.97,1.69,0.26-0.67,0.48-0.28c0.08,0.14-5.22,2.87-4.96,3.32c0.03,0.05,3.67-4.14,4.55-2.62c0.01,0.01-5.2,2.79-4.97,3.19
				c0.49,0.86,8.8-5.3,8.9-5.14c0.01,0.02-9.13,4.62-8.79,5.21c0.08,0.15,2.86-3.43,3.63-2.1c0.18,0.31-1.84,1.28-1.83,1.28
				c0.92,1.6,1.41-1.73,1.81-1.04c0.22,0.38-3.77,2.61-3.71,2.72c0.73,1.26,8.49-5.85,8.9-5.14c0.36,0.62-9.58,4.02-8.9,5.2
				c0.12,0.21,8.02-6.66,8.9-5.14c0.34,0.6-7.34,3.35-6.78,4.32c0.94,1.62,4.91-3.46,5.18-2.99c0.05,0.08-0.91,0.58-0.81,0.75
				c0.9,1.56,2-1.79,2.28-1.32c0.59,1.02-8.86,5.37-8.76,5.54c0.46,0.8,8.79-5.33,8.9-5.14c0.31,0.53-6.42,3.36-6.05,4
				c0.31,0.54,1.67-2.55,2.36-1.36c0.2,0.35-5.37,3.1-5.2,3.39c0.72,1.25,8.46-5.91,8.9-5.14c0.05,0.09-9.42,4.68-8.9,5.58
				c0.36,0.62,8.2-6.35,8.9-5.14c0.48,0.83-5.13,3.31-5.12,3.33c0.71,1.23,1.18-1.99,1.74-1.01c0.39,0.68-5.83,3.24-5.53,3.77
				c0.19,0.32,8.86-5.21,8.9-5.14c0.01,0.02-3.55,1.94-3.32,2.35c0.73,1.27,0.21-1.9,0.98-0.56c0.34,0.59-6.92,3.5-6.56,4.11
				c0.34,0.58,8.39-6.03,8.9-5.14c0.45,0.78-9.82,3.64-8.9,5.23c0.7,1.22,8.57-5.71,8.9-5.14c0.68,1.18-9.43,4.78-8.9,5.69
				c0.53,0.92,8.27-6.25,8.9-5.14c0.45,0.78-8.55,4.39-8.26,4.89c0.09,0.16,4.79-4.21,5.42-3.13c0.27,0.47-6.55,3.12-6.06,3.98
				c0.66,1.14,8.11-6.52,8.9-5.14c0.54,0.93-9.13,4.96-8.9,5.34c0.29,0.5,8.48-5.88,8.9-5.14c0.64,1.1-7.44,3.42-6.94,4.28
				c0.63,1.1,0.25-0.8,0.53-0.31c0.17,0.3-2.74,1.2-2.5,1.61c0.07,0.12,8.56-5.73,8.9-5.14c0.77,1.33-9.63,4.41-8.9,5.66
				c0.28,0.49,8.4-6.01,8.91-5.14c0.51,0.89-9.04,5.09-8.91,5.32c0.41,0.72,8.77-5.37,8.91-5.14c0.19,0.32-9.83,3.88-8.91,5.48
				c0.84,1.46,8.8-5.33,8.91-5.14c0.23,0.4-9.2,4.81-8.91,5.33c0.97,1.67,8.42-5.99,8.91-5.14c0.58,1.01-8.98,5.17-8.91,5.29
				c0.97,1.68,8.13-6.48,8.91-5.14c0.22,0.38-9.31,4.94-8.91,5.65c0.53,0.93,8.04-6.64,8.91-5.14c0.12,0.22-9.81,3.94-8.91,5.51
				c0.8,1.38,8.52-5.82,8.91-5.14c0.34,0.59-7.24,3.81-6.89,4.41c0.51,0.88,0.22-0.7,0.47-0.27c0.16,0.28-2.68,1.39-2.48,1.72
				c0.74,1.28,7.96-6.78,8.91-5.14c0.41,0.71-9.66,3.91-8.91,5.21c0.39,0.68,8.01-6.7,8.91-5.14c0.62,1.08-9.41,4.4-8.91,5.28
				c0.5,0.87,8.46-5.92,8.91-5.14c0.55,0.96-6.75,3.68-6.57,3.98c0.97,1.67,2.54-1.48,2.54-1.47c0.44,0.77-4.47,2.59-4.28,2.91
				c0.11,0.2,2.42-2.81,3.03-1.75c0.13,0.22-3.95,1.75-3.63,2.32c0.48,0.84,8.14-6.48,8.91-5.14c0.83,1.44-9.53,4.32-8.91,5.39
				c0.04,0.06,7.98-6.76,8.91-5.14c0.81,1.4-9.21,5.04-8.91,5.55c0.24,0.41,8.81-5.31,8.91-5.14c0.03,0.06-9.32,4.92-8.91,5.63
				c0.75,1.31,8.35-6.11,8.91-5.14c0.23,0.39-9.14,4.78-8.91,5.17c0.79,1.37,8.9-5.17,8.91-5.14c0.58,1-9.69,4.27-8.91,5.62
				c0.23,0.4,8.88-5.2,8.91-5.14c0.21,0.36-9.04,5.13-8.91,5.36c0.92,1.59,7.98-6.76,8.91-5.14c0.66,1.15-9.23,4.9-8.91,5.45
				c0.51,0.88,8.7-5.52,8.91-5.15c0.36,0.63-9.43,4.54-8.91,5.44c0.97,1.69,8.72-5.47,8.91-5.15c0.34,0.59-5.85,3.06-5.48,3.7
				c0.06,0.1,2.33-3.2,3.13-1.81c0.51,0.88-6.66,3.77-6.57,3.93c0.62,1.08,8.68-5.55,8.91-5.15c0.42,0.73-9.76,3.73-8.91,5.19
				c0.31,0.54,8.69-5.54,8.91-5.15c0.08,0.13-9.21,5.17-8.91,5.68c0.65,1.12,8.09-6.58,8.91-5.15c0.05,0.09-4.89,2.6-4.66,3
				c0.97,1.69,2.71-2.45,3.09-1.78c0.38,0.66-7.92,3.81-7.34,4.81c0.65,1.12,8.18-6.42,8.91-5.15c0.06,0.1-9.68,4.09-8.91,5.42
				c0.09,0.15,8.11-6.54,8.91-5.15c0.87,1.51-9.44,4.69-8.91,5.6c0.9,1.56,8.69-5.54,8.91-5.15c0.59,1.02-9.45,4.47-8.91,5.39
				c0.13,0.22,8.89-5.19,8.92-5.15c0.57,0.98-8.96,5.33-8.92,5.42c0.17,0.29,8.82-5.31,8.92-5.15c0.74,1.28-8.76,4.37-8.37,5.05
				c0.12,0.22,5.88-4.83,6.5-3.75c0.4,0.69-7.05,4.11-7.04,4.12c0.8,1.38,8.28-6.25,8.92-5.15c0.76,1.32-7.76,3.51-7.28,4.33
				c0.52,0.91,0.98-2.38,1.76-1.02c0.05,0.09,1.02-0.1,1.03-0.08c0.11,0.19,2.76-2.29,3.06-1.77c0.05,0.08-2.28,1.52-2.25,1.56
				c0.96,1.65,1.4-2.39,2.09-1.2c0.16,0.28-4.3,2.08-4.03,2.56c0.83,1.44,1.32-2.98,2.28-1.32c0.15,0.25,1.51-0.91,1.64-0.68
				c0.13,0.22,0.33-0.25,0.35-0.2c0.42,0.72-7.68,4.54-7.57,4.74c0.84,1.45,8.55-5.78,8.92-5.15c0.38,0.66-5.52,3.38-5.37,3.64
				c0.3,0.52,3.09-2.14,3.24-1.87c0,0-0.33,0.58-0.27,0.68c0.21,0.37,0.13-1.03,0.54-0.31c0.24,0.41-4.43,2.13-4,2.88
				c0.01,0.02,1.9-1.51,2.08-1.2c0.1,0.18-5.21,2.93-5.14,3.05c0.9,1.56,8.35-6.14,8.92-5.15c0.82,1.43-8.98,5.16-8.92,5.27
				c0.05,0.08,8.53-5.83,8.92-5.15c0.22,0.38-2.56,1.57-2.49,1.7c0.97,1.68,0.98-0.92,1.13-0.65c0.18,0.32-3.67,2.19-3.53,2.44
				c0.48,0.82,4.34-3.09,4.59-2.65c0.88,1.52-9.41,3.92-8.63,5.27c0.8,1.38,8.84-5.28,8.92-5.15c0.1,0.17-8.31,3.73-7.84,4.54
				c0.88,1.52,1.83-1.74,2.12-1.23c0.31,0.54-3.25,2.05-3.2,2.14c0.64,1.1,8.41-6.03,8.92-5.15c0.04,0.07-1.32,0.74-1.2,0.96
				c0.3,0.52,0.23-1.13,0.67-0.38c0.83,1.44-8.68,3.82-7.98,5.05c0.19,0.34,7.42-4.48,7.5-4.33c0.05,0.09-1.15,0.87-1.14,0.89
				c0.54,0.94,0.4-0.68,0.6-0.34c0.49,0.85-7.6,4.13-7.37,4.52c0.56,0.98,8.13-6.53,8.92-5.15c0.62,1.08-9.21,5.04-8.92,5.53
				c0.98,1.7,8.78-5.4,8.92-5.15c0.52,0.9-9.2,4.7-8.92,5.19c0.46,0.8,8.4-6.05,8.92-5.15c0.58,1-6.65,4.2-6.61,4.27
				c0.24,0.41,0.89-1.18,1.17-0.68c0.22,0.38-3.49,2.08-3.49,2.09c0.66,1.14,8.76-5.44,8.92-5.15c0.42,0.73-9,5.54-8.92,5.68
				c0.24,0.42,8.85-5.29,8.92-5.15c0.67,1.16-9.52,4.56-8.92,5.59c0.95,1.65,8.63-5.66,8.92-5.15c0.7,1.21-9.84,3.74-8.92,5.32
				c0.26,0.45,8.91-5.18,8.92-5.15c0.78,1.35-8.05,4.08-7.74,4.61c0.59,1.02,5.28-4.57,5.94-3.43c0.14,0.24-2.09,1.09-1.95,1.34
				c0.51,0.89,0.37-1.35,0.86-0.5c0.43,0.75-6.3,3.49-6.04,3.93c0.95,1.65,8.83-5.31,8.93-5.15c0.61,1.06-9.45,4.79-8.93,5.7
				c0.36,0.62,8.69-5.56,8.93-5.15c0.5,0.87-9.44,4.7-8.93,5.6c0.14,0.25,8.01-6.74,8.93-5.15c0.57,0.99-9.58,4.27-8.93,5.4
				c0.8,1.38,8.62-5.69,8.93-5.15c0.08,0.13-9.28,4.71-8.93,5.33c0.63,1.09,8.05-6.66,8.93-5.15c0.38,0.66-7.24,3.39-6.79,4.17
				c0.85,1.47,1.16-2.24,1.84-1.06c0.02,0.03-1.27,0.73-1.19,0.87c0.92,1.59,4.75-4.08,5.33-3.08c0.36,0.62-8.77,4.08-8.12,5.21
				c0.56,0.97,8.71-5.53,8.93-5.15c0.81,1.4-9.77,4.25-8.93,5.72c0.97,1.68,7.98-6.8,8.93-5.15c0.21,0.36-8.99,4.73-8.67,5.28
				c0.03,0.04,6.96-5.27,7.5-4.33c0.24,0.42-2.67,1.21-2.51,1.48c0,0.01,0.71-2.51,1.62-0.93c0.13,0.22,1.58-0.69,1.68-0.51
				c0.04,0.06-0.25-0.9,0.2-0.12c0.01,0.02-1.64,1.12-1.56,1.25c0.13,0.22,0.55-2.21,1.37-0.79c0.43,0.75-5.57,2.37-5.14,3.11
				c0.9,1.56,2.46-2.78,3.05-1.76c0.61,1.05-6.99,3.11-6.47,4.02c0.76,1.31,8.21-6.4,8.93-5.16c0.8,1.39-9.36,4.77-8.93,5.52
				c0.67,1.17,8.51-5.88,8.93-5.16c0.22,0.39-9.23,5.14-8.93,5.66c0.94,1.63,8.31-6.24,8.93-5.16c0.43,0.74-6.79,3.45-6.34,4.24
				c0.83,1.43,5.41-4.91,6.19-3.57c0.2,0.35-3.99,2.21-3.79,2.56c0.41,0.7,0.52-0.37,0.55-0.32c0,0-1.95,1.15-1.88,1.27
				c0.03,0.04,4.12-4.05,4.85-2.8c0.17,0.29-8.7,4.81-8.39,5.34c0.25,0.43,5.72-4.39,6.19-3.57c0.06,0.1-0.9,0.64-0.86,0.7
				c0.93,1.62,1.18-2.29,1.88-1.08c0.4,0.69-7.61,4.24-7.31,4.75c0.55,0.96,8.3-6.25,8.93-5.16c0.54,0.94-9.4,4.74-8.93,5.54
				c0.82,1.41,8.02-6.74,8.93-5.16c0.67,1.15-9.19,4.2-8.52,5.36c0.66,1.14,5.76-4.29,6.18-3.57c0.16,0.27-3.4,1.61-3.2,1.95
				c0.09,0.16,2.13-3.15,2.96-1.71c0.01,0.02-2.14,1.4-1.95,1.72c0.31,0.54,1.49-3.04,2.43-1.4c0.59,1.01-6.45,4.03-6.45,4.03
				c0.58,1.01,2.38-2.39,2.82-1.63c0.17,0.3,2.42-1.39,2.61-1.04c0.43,0.75,1.01-1.43,1.38-0.8c0.48,0.83-7.8,3.62-7.19,4.67
				c0.21,0.37,8-6.79,8.94-5.16c0.79,1.38-8.94,5.5-8.94,5.5c0.2,0.34,8.66-5.64,8.94-5.16c0.78,1.36-9.46,4.72-8.94,5.62
				c0.51,0.89,8.84-5.32,8.94-5.16c0.12,0.21-9.35,4.85-8.94,5.56c0.19,0.32,8.21-6.43,8.94-5.16c0.32,0.55-7.63,4.23-7.33,4.76
				c0.64,1.11,4.77-4.04,5.32-3.07c0.63,1.1-7.43,3.48-6.94,4.33c0.4,0.7,8.91-5.2,8.94-5.16c0.92,1.59-9.72,3.94-8.81,5.53
				c0.9,1.56,7.67-5.68,8.21-4.74c0.51,0.88-9.2,3.6-8.34,5.09c0.91,1.58,8.92-5.2,8.94-5.16c0.63,1.09-9.44,4.75-8.94,5.62
				c0.48,0.83,7.95-6.87,8.94-5.16c0.1,0.18-6.49,3.77-6.47,3.8c0.67,1.15,3.18-3.71,3.99-2.3c0.6,1.04-6.06,3.74-6,3.84
				c0.93,1.61,5.35-3.39,5.48-3.16c0.03,0.05-5.72,3.01-5.49,3.42c0.24,0.41,3.21-2.51,3.49-2.02c0,0,0.98-0.34,1-0.31
				c0.49,0.85,0.21-1.69,0.89-0.51c0.05,0.08-6.05,3-5.82,3.39c0.37,0.64,8.82-5.37,8.94-5.16c0.13,0.22-2.27,1.22-2.09,1.52
				c0.06,0.1,1.23-1.98,1.78-1.03c0.47,0.82-8.85,4.85-8.62,5.25c0.23,0.41,8.4-6.11,8.94-5.16c0.49,0.85-5.77,2.48-5.25,3.37
				c0.58,1,3.85-3.15,4.25-2.45c0.77,1.34-8.38,4.29-7.94,5.04c0.99,1.71,8.56-5.82,8.94-5.16c0.05,0.09-9.29,4.82-8.94,5.42
				c0.83,1.43,8.31-6.25,8.94-5.16c0.8,1.38-9.72,4.38-8.94,5.72c0.84,1.46,8.8-5.41,8.94-5.16c0.03,0.05-8.97,5.36-8.94,5.4
				c0.36,0.62,8.8-5.42,8.94-5.16c0.65,1.12-7.71,3.97-7.38,4.54c0.61,1.05,6.13-4.04,6.35-3.66c0.12,0.21-7.12,4.37-7,4.59
				c0.37,0.65,5.85-5.29,6.68-3.86c0.23,0.4-3.49,2-3.36,2.23c0.14,0.24,1.6-1.25,1.74-1c0.54,0.94-6.08,3.55-5.97,3.74
				c0.89,1.53,8.81-5.4,8.95-5.16c0.36,0.62-9.81,3.86-8.95,5.36c0.62,1.07,8.29-6.29,8.95-5.16c0.3,0.52-9.86,4.08-8.95,5.67
				c0.36,0.63,8.35-6.2,8.95-5.16c0.22,0.38-9.18,4.86-8.95,5.27c0.47,0.81,8.27-6.34,8.95-5.16c0.87,1.5-9.17,5.05-8.95,5.44
				c0.06,0.11,8.1-6.63,8.95-5.17c0.32,0.55-9.66,4.14-8.95,5.37c0.26,0.45,7.95-6.88,8.95-5.17c0.28,0.48-9.01,5.37-8.88,5.6
				c0.71,1.23,5.47-3.85,5.77-3.33c0.08,0.14-6.27,2.81-5.83,3.57c0.84,1.46,8.45-6.02,8.95-5.17c0.1,0.17-1.01,0.58-0.97,0.65
				c0.69,1.2,0.09-1.1,0.55-0.31c0.09,0.16-5.65,2.81-5.28,3.44c0.17,0.3,3.67-2.88,4-2.31c0.27,0.46-7.64,3.84-7.24,4.53
				c0.8,1.38,8.15-6.56,8.95-5.17c0.02,0.03-9.8,3.71-8.95,5.18c0.44,0.76,8.55-5.85,8.95-5.17c0.51,0.87-5.45,2.9-5.27,3.22
				c0.85,1.47,3.39-3.48,4.05-2.34c0.35,0.61-4.24,1.88-3.92,2.43c0.63,1.09,0.18-0.56,0.38-0.22c0.41,0.72-4.46,2.38-4.19,2.85
				c0.54,0.94,8.49-5.96,8.95-5.17c0.85,1.47-9.37,4.54-8.95,5.28c0.69,1.2,8.92-5.21,8.95-5.17c0.67,1.16-9.16,4.97-8.95,5.33
				c0.41,0.72,8.77-5.48,8.95-5.17c0.42,0.73-7.97,3.96-7.62,4.56c0.55,0.96,4.29-3.57,4.76-2.75c0.11,0.2-6.11,3.97-6.09,4.01
				c0.04,0.06,8.55-6.17,9.08-5.24c0.43,0.74-9.66,4.28-9.08,5.27c0.82,1.41,8.52-6.33,9.13-5.27c0.34,0.58-9.19,5.74-9.13,5.85
				c0.57,0.99,9.06-7.71,10.13-5.85c0.34,0.59-7.34,4.6-7.25,4.76c0.02,0.03,5.36-5.81,6.53-3.77c0.26,0.44-4.62,1.82-4.22,2.5
				c0.02,0.04-0.18-2.27,0.85-0.49c0.09,0.15-0.9,0.62-0.85,0.7c0.2,0.35,1.2-0.73,1.22-0.7c0.05,0.09-1.27,0.72-1.22,0.82
				c0.88,1.52,0.96-1.63,1.42-0.82c0.4,0.69-5.43,2.65-5.01,3.38c0.57,0.98-0.03-2.41,1.02-0.59c0.13,0.23-2.58,1.69-2.47,1.88
				c0.14,0.24,6.6-6.08,7.58-4.38c0.22,0.39-3.56,1.65-3.32,2.08c0.74,1.29,1.84-4.42,3.29-1.9c0.07,0.12,1.74-0.67,1.75-0.64
				c0.67,1.15,1.75-2.36,2.33-1.35c0.52,0.91-7.16,3.54-6.75,4.26c1.25,2.16,2.16-4.46,3.56-2.05c0.29,0.5-2.9,1.71-2.71,2.05
				c1.18,2.04,3.95-4.87,5.07-2.93c0.1,0.18-3.27,1.87-3.17,2.05c0.38,0.66,2.32-3.39,3.21-1.85c0.29,0.5-3.07,1.64-2.94,1.85
				c0.46,0.8,2.83-2.5,3.21-1.85c0.03,0.05-3.64,2.29-3.63,2.3c0.04,0.07,1.42-2.63,2.2-1.27c0.13,0.23-5.33,3.06-5.15,3.37
				c0.6,1.05,3.96-3.1,4.31-2.49c0.35,0.61-4.91,2.17-4.49,2.89c1.46,2.53,4.78-2.9,4.84-2.8c0.07,0.12-2.41,1.26-2.19,1.63
				c0.84,1.46,4.87-3.29,5.08-2.93c0.07,0.12-1.53,0.97-1.44,1.13c0.36,0.63,2.71-2.79,3.25-1.87c0.21,0.37-3.97,1.69-3.69,2.18
				c1.2,2.07,3.51-3.95,4.35-2.51c0.51,0.88-5.25,2.53-4.94,3.07c0.43,0.75,8.03-6.96,9.03-5.22c0.61,1.05-6.56,2.93-6.16,3.63
				c0.27,0.47,2.29-3.95,3.43-1.98c0.06,0.1,0.6-0.12,0.63-0.07c0.84,1.45,1.05-3.36,2.25-1.3c0.94,1.62-12.36,5.05-11.41,6.7
				c0.03,0.05,5.34-3.8,5.65-3.26c0.02,0.04-3.33,1.84-3.05,2.31c0.23,0.4,6.32-5.14,6.97-4.02c0.15,0.27-2.86,1.56-2.61,2
				c0.1,0.17,1.68-2.52,2.35-1.36c0.36,0.62-4.61,2.14-4.3,2.69c1.48,2.56-1-2.63,0.39-0.22c0.01,0.02,7.2-3.67,7.2-3.67
				c1.37,2.38,2.17-1.65,2.34-1.35c0.23,0.39-12.55,7.06-12.46,7.22c0.04,0.07,10.45-8.24,11.41-6.58c0.39,0.68-4.16,2.2-3.85,2.75
				c1.42,2.46,3.22-2.51,3.5-2.02c0.78,1.35-9.43,4.8-9.03,5.5c0.99,1.71,8.19-5.08,8.34-4.82c0.04,0.06-2.56,1.22-2.4,1.49
				c0.99,1.72,4.79-5.5,5.98-3.45c0.09,0.16-10.82,4.78-10.14,5.96c1.07,1.85,3.37-2.37,3.56-2.05c0.01,0.01,0.84-0.05,0.87,0
				c0.16,0.27,5.63-5.51,6.61-3.82c1.05,1.83-11.14,6.3-10.94,6.65c1.18,2.04,8.7-7.23,9.65-5.57c0.43,0.75-6.24,3.79-6.23,3.81
				c0.56,0.97,7.34-7.07,8.57-4.95c0.72,1.25-11,4.98-10.23,6.32c0.3,0.52,6.74-7.54,8.32-4.8c0.66,1.14-9.35,3.78-8.58,5.11
				c0.88,1.52,9.34-6.7,9.91-5.72c0.39,0.67-6.1,2.63-5.68,3.37c0.59,1.03,2.47-2.14,2.78-1.61c0.06,0.1,0.69-0.05,0.74,0.03
				c1.05,1.81,2.37-5.01,3.94-2.28c0.11,0.2-4.79,2.51-4.52,2.98c1.36,2.36-0.12-1.86,0.71-0.41c0.15,0.26-3.26,2.02-3.11,2.27
				c0.58,1,7.4-5.76,8.04-4.64c0.12,0.2-1.09,0.79-1.09,0.79c1.56,2.7,0.75-1.67,1.29-0.74c0.42,0.73-9.55,4.93-9.19,5.57
				c0.39,0.67,6.65-6.75,7.91-4.57c0.28,0.49-6.15,3.73-5.97,4.03c1.45,2.51,30.31-25.58,33.81-19.52
				c1.88,3.26-34.4,17.6-33.36,19.39c3.5,6.07,27.98-17.5,28.56-16.49c2.5,4.34-28.33,12.1-26.33,15.57
				c2.64,4.56,26.91-21.68,29.57-17.07c0.09,0.16-23.18,13.61-23.03,13.87c2.75,4.76,15.25-13.32,17.2-9.93
				c1.38,2.4-22.72,9.03-20.87,12.24c0.57,0.98,23.76-15.47,24.52-14.16c0.45,0.77-21.18,10.52-20.37,11.93
				c0.92,1.59,22.04-16.14,23.52-13.58c0.66,1.14-32.79,17.28-31.95,18.74c0.43,0.75,27.51-18.5,28.64-16.54
				c0.56,0.96-20.11,10.21-19.33,11.57c1.93,3.34,15.19-10.75,16.05-9.26c0.86,1.49-24.54,12.33-23.54,14.06
				c0.82,1.42,25.23-17.75,26.61-15.36c0.35,0.6-25.7,10.59-23.84,13.8c3.05,5.28,23.75-17.15,25.23-14.57
				c2.18,3.78-25.75,10.62-23.87,13.88c3.51,6.08,24.58-17.34,25.94-14.98c0.09,0.16-22.84,11.11-21.83,12.85
				c2.74,4.75,12.25-10.93,13.92-8.04c1.46,2.52-19.43,10.64-18.93,11.49c1.96,3.4,23.33-14.55,23.8-13.74
				c0.53,0.91-26.28,11.81-24.81,14.35c2.02,3.49,20.17-16.75,22.38-12.92c1.83,3.18-20.12,8.6-18.63,11.19
				c2.19,3.8,20.29-18.23,23.11-13.34c1.86,3.23-22.75,13.31-22.7,13.41c1.92,3.32,18.05-15.18,20.11-11.61
				c1.02,1.76-14.82,6.16-13.66,8.18c0.98,1.71,12.71-7.63,12.84-7.41c1.14,1.97-19.16,8.53-17.84,10.8
				c0.01,0.02,17.96-12.03,18.68-10.78c0.12,0.2-18.78,8.82-17.78,10.54c1.62,2.8,18.44-16.6,21.02-12.14
				c0.33,0.56-15.61,6.76-14.45,8.77c1.26,2.17,4.45-7.34,6.52-3.76c0.69,1.19-9.81,4.09-8.99,5.52c1.9,3.29,8.68-5.08,8.71-5.03
				c0.75,1.31-10.34,5.03-9.78,5.99c1.19,2.06,10.82-10.42,12.63-7.29c0.44,0.76-11.46,5.73-11.07,6.42
				c1.01,1.75,11.91-9.08,12.86-7.43c0.56,0.97-16.65,8.23-16.02,9.32c2.16,3.74,13.94-12.86,16.03-9.25
				c0.77,1.33-11.29,6.44-11.05,6.85c1.97,3.41,12.01-9.93,13.31-7.68c0.55,0.95-15.26,7.67-14.73,8.59
				c0.41,0.72,4.56-5.44,5.77-3.33c0.09,0.16-2.06,1.12-1.95,1.31c1.56,2.7,5.4-6.5,6.86-3.96"/>
			<path class="st2" d="M143.79,56.95c0.54,0.94,6.7-5.34,7.34-4.24c0.19,0.33-7.54,4.06-7.19,4.66c0.48,0.82,6.85-5.09,7.34-4.24
				c0.09,0.15-7.43,4.22-7.22,4.57c0.78,1.36,6.55-5.61,7.34-4.24c0.35,0.61-4.92,3.33-4.89,3.39c0.15,0.26,4.07-3.66,4.64-2.68
				c0.34,0.59-7.21,3.57-6.88,4.14c0.46,0.79,7.16-4.56,7.35-4.24c0.75,1.3-7.88,3.33-7.34,4.26c0.68,1.18,7.09-4.69,7.35-4.24
				c0.59,1.02-7.41,4.21-7.28,4.43c0.49,0.85,6.58-5.58,7.35-4.24c0.14,0.24-7.71,3.8-7.18,4.71c0.32,0.56,7.12-4.65,7.35-4.24
				c0.38,0.66-7.87,3.36-7.33,4.3c0.22,0.38,7.26-4.41,7.35-4.24c0.25,0.42-3.67,1.75-3.47,2.1c0.24,0.42,1.61-1.36,1.8-1.04
				c0.21,0.36-6.11,2.53-5.61,3.4c0.3,0.52,7.3-4.34,7.35-4.25c0.66,1.14-7.11,2.74-6.44,3.89c0.1,0.18,0.94-2.15,1.63-0.94
				c0.11,0.19-2.49,1.53-2.41,1.67c0.49,0.85,7.13-4.64,7.36-4.25c0.19,0.33-8.03,3.13-7.31,4.38c0.16,0.28,6.69-5.4,7.36-4.25
				c0.08,0.15-7.9,3.32-7.34,4.29c0.29,0.5,6.81-5.19,7.36-4.25c0.46,0.8-7.95,3.24-7.34,4.29c0.27,0.46,6.75-5.3,7.36-4.25
				c0.02,0.04-7.48,4.12-7.28,4.45c0.3,0.52,7.22-4.49,7.36-4.25c0.32,0.55-7.47,4.08-7.33,4.33c0.23,0.4,6.74-5.33,7.36-4.25
				c0.17,0.29-3.3,1.8-3.19,1.99c0.82,1.43,1.36-2.69,2.19-1.26c0.53,0.93-6.86,2.74-6.27,3.76c0.4,0.7,6.98-4.9,7.36-4.25
				c0.16,0.27-5.09,2.36-4.67,3.1c0.59,1.02,0.91-1.17,1.19-0.68c0.04,0.06-1.25,0.77-1.15,0.94c0.55,0.95,2.92-2.81,3.4-1.96
				c0.19,0.32-6.01,3.32-5.91,3.5c0.82,1.42,7.02-4.85,7.36-4.25c0.14,0.25-2.66,1.58-2.51,1.85c0.6,1.04,1.74-2.56,2.41-1.39
				c0.24,0.41-7.26,3.96-7.13,4.19c0.17,0.3,7.28-4.41,7.37-4.25c0.63,1.09-6.43,3.51-6.34,3.67c0.17,0.3,5.06-3.71,5.4-3.12
				c0.49,0.84-6.93,2.92-6.34,3.94c0.35,0.61,7.19-4.56,7.37-4.25c0.28,0.48-7.45,4.22-7.27,4.54c0.49,0.85,7.07-4.78,7.37-4.26
				c0.09,0.15-5.6,2.15-5.09,3.04c0.46,0.79,3.28-3.71,4.06-2.35c0.14,0.24-2.31,1.18-2.12,1.51c0.35,0.6,2.11-2.7,2.75-1.59
				c0.54,0.93-7.46,3.03-6.77,4.23c0.6,1.04,7.32-4.34,7.37-4.26c0.58,1-6.9,2.99-6.39,3.88c0.35,0.6,3.99-3.48,4.5-2.6
				c0.32,0.55-3.96,2.49-3.93,2.54c0.12,0.2,2.12-2.77,2.79-1.61c0.09,0.16,1.14-0.83,1.25-0.64c0.07,0.12,0.85-1.95,1.48-0.86
				c0.22,0.38-7.32,3.35-6.85,4.17c0.35,0.61,6.87-5.13,7.38-4.26c0.14,0.25-7.83,3.47-7.37,4.27c0.2,0.35,6.62-5.57,7.38-4.26
				c0.61,1.06-7.76,3.66-7.31,4.46c0.25,0.44,6.59-5.63,7.38-4.26c0.47,0.82-7.43,4.32-7.24,4.64c0.67,1.16,7.15-4.67,7.38-4.26
				c0.22,0.38-5.15,2.83-5.04,3.02c0.24,0.42,1.46-2.64,2.24-1.29c0.27,0.46-4.78,2.36-4.42,2.99c0.06,0.1,6.8-5.28,7.38-4.26
				c0.74,1.28-7.97,3.4-7.25,4.63c0.39,0.67,6.86-5.18,7.39-4.26c0.4,0.7-7.57,4.02-7.33,4.43c0.52,0.91,6.85-5.19,7.39-4.27
				c0.06,0.1-7.37,4.35-7.33,4.42c0.73,1.26,7-4.93,7.39-4.27c0.08,0.14-2.14,0.92-1.96,1.24c0.45,0.79,0.94-0.68,1-0.58
				c0.36,0.62-6.78,3.12-6.3,3.96c0.01,0.02,6.56-5.7,7.39-4.27c0.5,0.87-7.6,4.05-7.25,4.66c0.68,1.17,7.14-4.71,7.39-4.27
				c0.68,1.18-7.67,3.82-7.36,4.36c0.74,1.29,7.34-4.37,7.39-4.27c0.03,0.06-8.06,3.23-7.29,4.55c0.61,1.06,7.26-4.5,7.4-4.27
				c0.38,0.66-5.53,3.43-5.39,3.67c0.17,0.29,1.27-2,1.82-1.05c0.14,0.25-3.02,1.44-2.81,1.8c0.04,0.07,6.45-3.9,6.52-3.77
				c0.16,0.28-7.36,4.33-7.15,4.69c0.55,0.95,6.65-5.58,7.4-4.27c0.42,0.72-7.69,3.79-7.38,4.34c0.13,0.23,7.04-4.91,7.4-4.27
				c0.18,0.3-7.88,3.54-7.32,4.51c0.65,1.12,7.1-4.8,7.4-4.27c0.13,0.22-7.91,3.51-7.3,4.57c0.08,0.13,6.91-5.13,7.41-4.28
				c0.71,1.22-8.04,3.2-7.38,4.35c0.78,1.36,6.75-5.41,7.41-4.28c0.58,1.01-7.74,3.77-7.33,4.48c0.64,1.1,7.02-4.95,7.41-4.28
				c0.64,1.11-7.82,3.61-7.35,4.42c0.59,1.03,7.28-4.5,7.41-4.28c0.19,0.32-7.37,4.4-7.35,4.44c0.16,0.28,7.35-4.38,7.41-4.28
				c0.11,0.19-2.43,1.42-2.36,1.55c0.28,0.49,0.15-1.26,0.66-0.38c0.4,0.7-6.11,2.49-5.64,3.3c0.76,1.32,7.39-4.32,7.41-4.28
				c0.48,0.83-7.3,4.61-7.26,4.68c0.65,1.13,2.72-2.1,2.95-1.7c0.21,0.37-2.82,2.08-2.82,2.09c0.21,0.37,6.86-5.24,7.42-4.28
				c0.18,0.32-7.62,3.97-7.37,4.41c0.62,1.07,6.9-5.18,7.42-4.28c0.31,0.54-7.73,3.81-7.36,4.45c0.12,0.2,7.16-4.73,7.42-4.28
				c0.3,0.51-7.73,3.86-7.3,4.61c0.18,0.31,6.93-5.12,7.42-4.28c0.67,1.16-7.82,3.72-7.3,4.61c0.06,0.1,7.33-4.44,7.42-4.28
				c0.38,0.66-7.52,4.28-7.27,4.72c0.66,1.15,7.42-4.29,7.42-4.29c0.76,1.31-7.98,3.44-7.32,4.58c0.66,1.14,7.39-4.35,7.43-4.29
				c0.1,0.17-7.54,4.24-7.28,4.68c0.25,0.43,7.07-4.9,7.43-4.29c0.47,0.82-8.04,3.23-7.42,4.3c0.51,0.88,6.7-5.55,7.43-4.29
				c0.59,1.02-6.74,3.95-6.71,4c0.03,0.06,2.83-2.97,3.4-1.97c0.01,0.01,0.03,0.43,0.04,0.44c0.11,0.18,2.69-2.01,2.89-1.67
				c0.71,1.23-7.47,2.93-6.86,3.99c0.13,0.22,6.73-5.5,7.43-4.29c0.42,0.73-7.69,4.02-7.26,4.78c0.6,1.04,6.75-5.47,7.43-4.29
				c0.14,0.25-7.7,3.93-7.35,4.54c0.56,0.97,6.8-5.4,7.44-4.29c0.27,0.48-7.55,4.16-7.39,4.43c0.23,0.4,7.06-4.95,7.44-4.29
				c0,0.01-8.04,3.27-7.43,4.32c0.38,0.66,7.42-4.32,7.44-4.29c0.04,0.07-8.05,3.36-7.32,4.62c0.15,0.27,7.15-4.79,7.44-4.29
				c0.42,0.73-7.55,4.12-7.42,4.35c0.35,0.6,7.12-4.85,7.44-4.29c0.55,0.95-6.05,3.37-5.8,3.81c0.28,0.48,0.97-0.93,1.13-0.65
				c0.09,0.16-1.57,1.16-1.55,1.2c0.38,0.65,4.23-4.28,5.03-2.9c0.2,0.34-6.31,3.04-5.94,3.68c0.42,0.72,7.26-4.61,7.44-4.3
				c0.45,0.79-8.04,3.29-7.42,4.36c0.6,1.04,6.87-5.3,7.44-4.3c0.03,0.05-5.21,2.21-4.75,3c0.12,0.2,1.24-1.61,1.63-0.94
				c0.37,0.64-4.28,2.41-4.22,2.52c0.79,1.37,7.35-4.47,7.45-4.3c0.24,0.42-7.85,3.62-7.43,4.34c0.23,0.4,6.78-5.46,7.45-4.3
				c0.04,0.07-7.89,3.56-7.42,4.37c0.47,0.81,7.08-4.94,7.45-4.3c0.54,0.94-7.56,4.21-7.35,4.56c0.11,0.18,6.67-5.65,7.45-4.3
				c0.17,0.29-2.34,1.17-2.13,1.53c0.54,0.94,0.75-0.72,0.88-0.51c0.37,0.63-6.33,3.28-5.97,3.91c0.63,1.09,7.39-4.41,7.45-4.3
				c0.59,1.02-8.13,3.22-7.36,4.55c0.05,0.08,7.45-4.31,7.45-4.3c0.76,1.32-8.01,3.44-7.36,4.58c0.43,0.74,6.73-5.56,7.46-4.3
				c0.35,0.61-8.01,3.39-7.42,4.4c0.49,0.84,7.12-4.89,7.46-4.3c0.32,0.56-7.35,4.67-7.29,4.78c0.17,0.29,7.26-4.64,7.46-4.31
				c0.18,0.31-7.51,4.26-7.42,4.41c0.37,0.65,7.11-4.91,7.46-4.31c0.16,0.28-7.53,4.27-7.38,4.53c0.38,0.65,7.24-4.7,7.46-4.31
				c0.18,0.31-8.09,3.34-7.35,4.62c0.75,1.29,7.24-4.7,7.46-4.31c0.38,0.66-7.6,4.14-7.39,4.52c0.65,1.13,6.65-5.72,7.46-4.31
				c0.6,1.05-7.36,4.63-7.33,4.69c0.2,0.34,6.62-5.77,7.47-4.31c0.72,1.26-7.54,4.19-7.46,4.32c0.3,0.52,7.24-4.7,7.47-4.31
				c0.14,0.24-7.61,4.1-7.43,4.43c0.64,1.11,7.26-4.67,7.47-4.31c0.33,0.58-7.61,4.16-7.38,4.56c0.46,0.79,7.06-5.03,7.47-4.31
				c0.39,0.68-4.4,1.86-4,2.56c0.32,0.55-0.25-0.83,0.17-0.1c0.07,0.13,0.79-0.28,0.83-0.19c0.82,1.43,0.73-1.04,1-0.57
				c0.08,0.14-5.29,3.2-5.22,3.32c0.7,1.21,7.02-5.1,7.47-4.31c0.23,0.39-7.66,4.03-7.44,4.41c0.22,0.39,7.22-4.75,7.47-4.31
				c0.14,0.24-7.8,3.9-7.34,4.69c0.18,0.31,7.47-4.33,7.48-4.32c0.63,1.09-7.37,4.68-7.31,4.79c0.33,0.58,7.31-4.61,7.48-4.32
				c0.38,0.65-7.73,3.96-7.41,4.51c0.64,1.11,7.29-4.65,7.48-4.32c0.37,0.64-5.35,2.15-4.87,2.99c0.61,1.05,2.22-2.65,2.82-1.63
				c0.56,0.97-5.71,2.6-5.31,3.28c0.75,1.29,6.86-5.4,7.48-4.32c0.07,0.11-7.89,3.78-7.33,4.75c0.58,1.01,7.11-4.97,7.48-4.32
				c0.62,1.07-7.78,3.9-7.39,4.59c0.3,0.52,6.82-5.47,7.49-4.32c0.32,0.55-7.29,3.65-6.81,4.47c0.04,0.07,6.75-4.28,6.92-3.99
				c0.59,1.02-7.74,3.83-7.37,4.46c0.17,0.3,6.75-5.61,7.49-4.32c0.38,0.67-7.83,3.91-7.32,4.79c0.24,0.42,7.45-4.4,7.49-4.33
				c0.02,0.03-7.77,3.47-7.31,4.27c0.79,1.36,1.46-2.78,2.3-1.33c0,0,0.26,0.01,0.27,0.03c0.81,1.4,2.49-2.64,3.01-1.74
				c0.53,0.92-6.02,2.79-5.62,3.49c0.42,0.72,6.97-5.24,7.5-4.33c0.54,0.94-7.97,3.56-7.45,4.46c0.66,1.14,7.31-4.65,7.5-4.33
				c0.71,1.24-8.08,3.37-7.44,4.49c0.2,0.35,6.67-5.76,7.5-4.33c0.48,0.84-7.89,3.71-7.44,4.49c0.21,0.36,7.29-4.69,7.5-4.33
				c0.58,1.01-8.01,3.55-7.4,4.61c0.36,0.62,6.95-5.29,7.5-4.33c0.67,1.16-7.42,4.57-7.41,4.59c0.22,0.38,6.69-5.74,7.5-4.33
				c0,0.01-6.01,3.41-5.75,3.87c0.66,1.14-0.09-0.92,0.33-0.19c0.09,0.15-1.94,1.21-1.79,1.46c0.49,0.85,6.86-5.45,7.51-4.33
				c0.35,0.61-7.77,4.02-7.37,4.71c0.35,0.61,7.5-4.35,7.51-4.34c0.19,0.33-7.73,3.99-7.48,4.42c0.81,1.4,7.34-4.64,7.51-4.34
				c0.25,0.43-7.75,3.79-7.39,4.42c0.54,0.94,1.8-1.31,1.92-1.11c0.15,0.26-2.14,0.92-1.96,1.22c0.67,1.17,7.39-4.54,7.51-4.34
				c0.26,0.46-7.51,4.48-7.38,4.7c0.55,0.95,6.85-5.49,7.51-4.34c0.34,0.59-7.87,3.83-7.41,4.62c0.1,0.18,7.1-5.06,7.51-4.34
				c0.77,1.34-7.98,3.69-7.37,4.75c0.75,1.3,7.01-5.23,7.52-4.34c0.17,0.3-8.12,3.37-7.45,4.53c0.67,1.16,7.07-5.12,7.52-4.34
				c0.04,0.06-2.26,1.45-2.21,1.55c0.06,0.11,1.7-1.96,2.12-1.23c0.54,0.94-7.42,4.3-7.2,4.67c0.11,0.18,7.02-5.21,7.52-4.34
				c0.61,1.06-7.94,3.76-7.39,4.7c0.39,0.68,6.96-5.32,7.52-4.34c0.43,0.75-7.52,4.48-7.4,4.69c0.28,0.48,7.39-4.58,7.53-4.35
				c0.5,0.86-7.94,3.69-7.48,4.48c0.61,1.05,6.99-5.27,7.53-4.35c0.06,0.1-7.89,3.87-7.39,4.73c0.5,0.86,7.29-4.76,7.53-4.35
				c0.76,1.32-7.72,4.11-7.44,4.6c0.62,1.08,7.46-4.47,7.53-4.35c0.47,0.82-7.67,4.21-7.43,4.63c0.57,0.99,7.41-4.56,7.53-4.35
				c0.4,0.69-5.57,2.42-5.17,3.1c0.42,0.73,4.88-3.04,4.98-2.88c0.47,0.82-7.24,4.46-7.19,4.55c0.38,0.67,6.91-5.44,7.54-4.35
				c0.29,0.5-7.72,4.05-7.52,4.4c0.54,0.93,6.7-5.79,7.54-4.35"/>
			<path class="st2" d="M132.39,98.49c1.18,2.04,10.09-9,11.46-6.62c0.17,0.3-2.77,1.6-2.6,1.89c1.28,2.21,1.69-1.06,1.73-1
				c0.01,0.01-5.42,2.87-5.15,3.33c0.14,0.25,2.26-3.53,3.22-1.86c0.2,0.34-4.54,2.57-4.32,2.95c1.2,2.09,8.93-5.48,9.07-5.24
				c0.23,0.4-5.73,2.93-5.42,3.48c0.69,1.19,0.1-1.42,0.69-0.4c0.03,0.05,0.34,0.04,0.37,0.08c1.19,2.06,2.43-1.84,2.62-1.51
				c0.03,0.05-4.25,2.24-4.1,2.5c0.5,0.87,2.75-2.68,3.22-1.86c0.06,0.1,1.64-0.53,1.65-0.52c1.34,2.32,3.27-2.38,3.48-2.01
				c0.16,0.28-5.91,2.89-5.46,3.67c0.52,0.91,3.19-3.47,3.89-2.25c0.44,0.77-5.43,2.48-4.98,3.27c0.42,0.73,3.3-3.15,3.83-2.21
				c0.57,0.99-5.94,2.78-5.57,3.41c1.37,2.38,1.33-3.55,2.53-1.46c0.02,0.03-0.61,0.43-0.56,0.52c1.04,1.8,5.44-4.3,5.94-3.43
				c0.4,0.7-5.14,2.47-4.91,2.88c0.81,1.41,2.26-3.54,3.22-1.86c0,0.01-3.95,1.77-3.58,2.41c1.48,2.56,7.01-7.43,8.47-4.89
				c0.19,0.32-8,3.35-7.43,4.35c1.25,2.17,2.45-3.21,3.22-1.86c0.21,0.37-4.02,1.82-3.65,2.48c1.13,1.95,4.81-3.65,5.19-3
				c0.02,0.03-0.67,0.82-0.61,0.93c1.2,2.08,1.31-2.92,2.25-1.3c0.32,0.55-4.23,2.78-4.16,2.89c0.31,0.54,1.45-2.81,2.31-1.33
				c0.6,1.05-6.05,3.12-5.76,3.61c0.48,0.83,2.89-2.05,3.05-1.76c0.25,0.42,6.06-4.44,6.53-3.63c1.79,3.1,5.51-7.85,7.53-4.35
				c0.14,0.24-7.55,3.96-7.14,4.67c1.88,3.25,6.44-4.53,6.79-3.92c0.78,1.34-17.44,7.39-16.26,9.44
				c1.58,2.74,16.48-12.14,17.62-10.17c0.17,0.3-9.61,5.25-9.42,5.58c2.21,3.83,10.58-9.95,12.25-7.07c1,1.74-10.31,6.31-10.22,6.46
				c0.93,1.6,7.06-6.51,8.12-4.69c0.74,1.28-9.83,4.71-9.26,5.69c1.12,1.93,8.69-7.94,9.95-5.75c0.43,0.74-8.11,3.46-7.5,4.52
				c0.93,1.61,5.67-6.78,7.18-4.15c0.96,1.66-10.32,3.87-9.36,5.54c0.89,1.54,8-5.17,8.24-4.76c0.36,0.62-13.78,6.44-13.08,7.67
				c0.94,1.62,5.14-6.19,6.54-3.77c0.02,0.04,0.52-0.13,0.57-0.05c0.58,1,7.55-4.8,7.74-4.47c0.92,1.59-11.54,6.19-11.13,6.89
				c1.11,1.93,1.58-3.93,2.89-1.67c0.01,0.01,0.27-0.17,0.29-0.15c1.14,1.98,5.08-5.44,6.16-3.56c0.41,0.72-8.27,4.86-8.15,5.09
				c1.7,2.95,2.72-5.3,4.33-2.5c0.17,0.3-1.81,0.87-1.71,1.05c1.05,1.81,6.14-5.23,6.87-3.97c0.62,1.08-6.68,2.89-6.24,3.66
				c1.29,2.23,2.34-4.2,3.58-2.06c0.29,0.5-3.67,2.29-3.58,2.46c0.82,1.42,3.5-4.63,4.63-2.67c0.51,0.89-7.99,4.44-7.72,4.9
				c1.26,2.18,7.22-6.97,8.44-4.87c0.58,1.01-6.04,3.75-5.93,3.95c1.32,2.29,3.85-3.9,4.58-2.64c0.08,0.13-1.2,0.56-1.1,0.73
				c0.06,0.11-0.29-3,1.08-0.62c0.2,0.35-3.87,2.5-3.85,2.53c0.62,1.07,3.6-2.98,3.99-2.3c0.2,0.35-8.7,4.16-8.17,5.07
				c0.99,1.72,7.64-4.44,7.65-4.42c0.02,0.03,0.57-0.35,0.61-0.29c0.02,0.03,3.81-4.8,4.93-2.85c0.09,0.15-5.37,2.56-5.06,3.09
				c0.74,1.28,1.08-3.89,2.49-1.44c0.02,0.04-4.78,2.12-4.5,2.61c0.75,1.3,4.73-5.57,5.96-3.44c0.65,1.12-6.39,3.8-6.31,3.95
				c0.54,0.93,2.35-2.1,2.67-1.54c0.33,0.57-5.03,2.44-4.64,3.12c1.14,1.97,6.84-5.22,7.39-4.27c0.5,0.87-5.37,2.43-4.94,3.17
				c0.19,0.32,5.5-5.83,6.65-3.84c0.4,0.69-4.5,2.41-4.33,2.71c0.76,1.32,3.37-4.23,4.36-2.52c0.08,0.14-6.03,2.61-5.56,3.42
				c0.31,0.54,1.63-1.73,1.97-1.14c0.13,0.22,1.59-0.66,1.72-0.45c0.94,1.62,1.91-1.32,2-1.16c0.77,1.34-9.52,4.52-8.96,5.49
				c0.09,0.16,9.76-6.51,10.14-5.86c0.65,1.12-9.96,4.49-9.18,5.85c0.85,1.48,9.14-5.74,9.34-5.39c0.63,1.09-9.17,5.13-9.02,5.39
				c0.17,0.3,8.29-6.6,9.07-5.24c0.49,0.85-8.58,5.18-8.55,5.24c0.26,0.46,7.95-6.17,8.64-4.99c0.31,0.53-8.61,4.15-8.13,4.99
				c0.38,0.67,7.52-5.94,8.21-4.74c0.79,1.37-8.15,3.69-7.54,4.74c0.72,1.24,7.01-5.56,7.66-4.42c0.22,0.37-7.87,4.1-7.51,4.73
				c0.11,0.19,7.3-4.97,7.63-4.4c0.31,0.54-8.05,3.75-7.56,4.6c0.73,1.26,7.47-4.69,7.63-4.41c0.15,0.27-7.82,4.08-7.62,4.44
				c0.1,0.17,7.22-5.11,7.63-4.41c0.18,0.3-8.24,3.42-7.56,4.62c0.36,0.62,7.33-4.93,7.63-4.41c0.28,0.48-8.07,3.68-7.61,4.48
				c0.86,1.49,7.29-5.01,7.63-4.41c0.2,0.35-7.56,4.65-7.53,4.7c0.74,1.27,6.91-5.66,7.64-4.41c0.08,0.14-7.55,4.73-7.48,4.84
				c0.43,0.74,7.18-5.21,7.64-4.41c0.65,1.12-7.55,4.7-7.52,4.74c0.37,0.64,7.43-4.79,7.64-4.41c0.35,0.61-7.97,4.03-7.47,4.9
				c0.03,0.06,7.4-4.85,7.65-4.42c0.2,0.35-4.84,2.02-4.48,2.64c0.48,0.84,1.26-2.57,2.06-1.19c0.41,0.71-5.56,2.53-5.08,3.37
				c0.23,0.4,7.56-4.58,7.65-4.42c0.79,1.36-8.26,3.53-7.5,4.84c0.05,0.08,6.93-5.68,7.66-4.42c0.53,0.92-8.09,3.7-7.63,4.49
				c0.65,1.13,7.44-4.79,7.66-4.42c0.07,0.13-8.27,3.5-7.52,4.8c0.72,1.24,7.6-4.52,7.66-4.42c0.19,0.34-8.25,3.56-7.52,4.82
				c0.57,0.98,7.04-5.5,7.66-4.42c0.26,0.45-3.51,1.75-3.24,2.22c0.1,0.17,0.46-0.99,0.77-0.45c0.01,0.01-0.23,0.47-0.18,0.55
				c0.37,0.65,1-1.59,1.43-0.83c0.48,0.84-6.2,3.77-6.08,3.98c0.64,1.12,7.09-5.44,7.67-4.43c0.01,0.02-7.88,4.09-7.66,4.47
				c0.62,1.07,7.18-5.29,7.67-4.43c0.28,0.49-5.9,3.83-5.9,3.83c0.52,0.9,1.49-2.26,2.09-1.21c0.06,0.11,1.32-0.87,1.42-0.68
				c0.16,0.28,0.35-1.28,0.81-0.47c0.18,0.32-2.27,1.69-2.2,1.82c0.05,0.08,2.64-2.34,3-1.73c0.22,0.38-6.88,3.34-6.48,4.04
				c0.2,0.35,6.92-5.77,7.69-4.44c0.57,0.99-7.89,4.22-7.55,4.82c0.02,0.04,6.97-5.69,7.69-4.44c0.61,1.06-7.71,4.5-7.6,4.7
				c0.61,1.05,7.03-5.59,7.69-4.44c0.11,0.2-6.58,3.52-6.28,4.04c0.75,1.3,0.23-1.59,0.86-0.5c0.22,0.38-2.21,1.31-2.01,1.67
				c0.4,0.69,7.11-5.46,7.7-4.44c0.65,1.13-7.2,3.71-6.92,4.2c0.68,1.18-0.42-1.56,0.36-0.21c0.02,0.03-0.94,1.02-0.93,1.05
				c0.48,0.84,6.86-5.92,7.7-4.45c0.59,1.02-7.76,4.39-7.67,4.54c0.4,0.69,7.32-5.12,7.7-4.45c0.22,0.38-7.93,4.24-7.54,4.92
				c0.79,1.36,6.99-5.7,7.71-4.45c0.05,0.09-5.29,2.92-5.13,3.19c0.15,0.27,2.23-2.12,2.59-1.5c0.31,0.53-5.27,2.68-5.08,3.01
				c0.28,0.48,7.64-4.58,7.71-4.45c0.07,0.12-4.66,2.13-4.29,2.78c0.6,1.04,3.3-3.01,3.78-2.18c0.38,0.66-7.09,4.32-6.95,4.57
				c0.5,0.86,6.86-5.95,7.72-4.46c0.53,0.91-7.21,3.93-7.02,4.27c0.24,0.42,1.25-2.19,1.89-1.09c0.15,0.25-1.46,1.08-1.46,1.1
				c0.21,0.36,2.8-2.49,3.18-1.84c0.09,0.15-4.13,2.58-4.09,2.64c0.74,1.28,7.72-4.47,7.72-4.46c0.53,0.92-6.29,2.67-5.7,3.69
				c0.74,1.27,5.62-3.25,5.62-3.24c0.24,0.41-4.14,2.2-3.98,2.49c0.21,0.36,1.55-1.25,1.71-0.99c0.29,0.5-5.23,3.04-5.09,3.28
				c0.73,1.27,7.57-4.74,7.73-4.46c0.1,0.18-7.62,4.2-7.48,4.46c0.28,0.49,5.46-4.99,6.25-3.61c0.59,1.02-6.86,3.19-6.34,4.09
				c0.25,0.43,7.31-5.21,7.74-4.47c0.4,0.69-6.05,2.42-5.51,3.36c0.2,0.35,4.01-2.34,4.02-2.32c0.38,0.65-6.16,3.78-6.08,3.92
				c0.12,0.21,7.65-4.62,7.74-4.47c0.76,1.32-7.91,4.25-7.67,4.65c0.12,0.2,7.1-5.57,7.74-4.47c0.26,0.45-6.42,2.94-5.83,3.95
				c0.66,1.15,0.17-0.78,0.46-0.27c0.18,0.3-2.15,1.48-2.08,1.59c0.63,1.09,7.18-5.46,7.75-4.47c0.52,0.9-6.19,2.82-5.65,3.76
				c0.7,1.21,4.6-3.22,4.85-2.8c0.57,0.98-6.76,4.05-6.75,4.08c0.5,0.86,6.98-5.81,7.75-4.48c0.56,0.96-7.9,4.33-7.66,4.74
				c0.84,1.45,7.26-5.33,7.76-4.48c0.1,0.17-6.53,4.12-6.52,4.14c0.08,0.14,0.78-0.85,0.96-0.55c0.25,0.44,3.68-2.38,4.04-1.76
				c0.02,0.03,0.95-2.51,1.79-1.04c0.27,0.47-3.28,2.06-3.24,2.12c0.81,1.4,0-1.05,0.46-0.26c0.42,0.73-5.17,2.42-4.79,3.08
				c0.71,1.23,7.36-5.19,7.77-4.49c0.53,0.92-6.63,3.1-6.21,3.82c0.44,0.77,1.07-2.4,1.84-1.06c0.12,0.21-1.31,0.86-1.19,1.08
				c0.37,0.65,5.35-3.64,5.59-3.23c0.25,0.43-8.23,3.51-7.45,4.86c0.65,1.12,7.16-5.56,7.78-4.49c0.81,1.4-7.87,4.51-7.61,4.98
				c0.81,1.4,7.42-5.13,7.78-4.49c0.44,0.77-5.06,2.45-4.79,2.93c0.76,1.31,2.96-2.39,3.26-1.88c0,0.01-4.67,2.53-4.49,2.84
				c0.61,1.06,1.18-2.05,1.77-1.02c0.22,0.38-3.59,1.8-3.28,2.33c0.39,0.68,7.05-5.78,7.79-4.5c0.16,0.28-8.19,3.87-7.73,4.67
				c0.35,0.6,7.54-4.94,7.79-4.5c0.74,1.28-8.33,3.65-7.72,4.71c0.71,1.23,7.51-4.99,7.79-4.5c0.03,0.05-2.32,1.37-2.09,1.76
				c0.27,0.47,1.7-1.58,1.96-1.13c0.22,0.38-7.89,3.66-7.47,4.39c0.68,1.18,7.3-5.36,7.8-4.5c0.26,0.46-7.95,4.25-7.78,4.56
				c0.2,0.35,7.07-5.77,7.8-4.5c0.12,0.2-8.46,3.41-7.75,4.64c0.63,1.09,6.99-5.9,7.8-4.5c0.42,0.72-7.93,4.01-7.47,4.8
				c0.07,0.12,1.44-2.39,2.11-1.22c0.11,0.18-2.34,1.26-2.28,1.36c0.8,1.39,6.97-5.94,7.8-4.51c0.51,0.88-8.59,3.17-7.79,4.55
				c0.68,1.19,6.96-5.96,7.8-4.51c0.38,0.65-8.53,3.3-7.76,4.62c0.39,0.68,7.25-5.47,7.81-4.51c0.04,0.07-3.76,1.85-3.54,2.24
				c0.77,1.33,2.48-2.74,3.05-1.76c0.5,0.87-6.94,3.53-6.57,4.17c0.67,1.16,1.42-1.26,1.61-0.93c0.07,0.12,2.14-1.3,2.25-1.11
				c0.19,0.33,2.48-2.09,2.77-1.6c0.23,0.4-7.52,3.51-7.13,4.18c0.86,1.48,7.27-5.44,7.81-4.51c0.58,1-8.27,3.83-7.7,4.84
				c0.14,0.24,7.56-4.95,7.81-4.51c0.11,0.19-6.45,2.48-5.88,3.47c0.19,0.32-0.24-1.69,0.55-0.32c0.08,0.15-1.65,1.46-1.64,1.49
				c0.55,0.95,7.02-4.36,7.15-4.13c0.28,0.49-7.12,3.2-6.58,4.13c0.4,0.7,6.44-4.28,6.68-3.86c0.09,0.15-6.72,2.96-6.2,3.86
				c0.57,0.99,6.24-3.69,6.28-3.63c0.47,0.82-5.73,3.24-5.51,3.62c0.56,0.96,5.33-3.8,5.64-3.26c0.32,0.55-5.54,2.7-5.21,3.26
				c0.62,1.07,4.88-3.76,5.29-3.05c0.29,0.51-5.64,2.27-5.19,3.05c0.29,0.51,4.68-3.9,5.2-3c0.43,0.74-4.72,2.48-4.42,3
				c0.42,0.72,4.13-3.37,4.56-2.63c0.16,0.27-4.44,2.12-4.14,2.63c0.51,0.87,3.94-2.91,4.21-2.43c0.32,0.55-4.13,1.84-3.79,2.43
				c0.3,0.52,3.44-2.96,3.86-2.23c0.07,0.12-3.14,2.1-3.07,2.23c0.2,0.35,3.08-2.06,3.2-1.85c0.2,0.35-3.05,1.72-2.97,1.85
				c0.08,0.14,2.86-2.01,3.01-1.74c0.15,0.26-2.95,1.53-2.83,1.74c0.18,0.31,2.64-2.03,2.86-1.65c0.01,0.02-2.9,1.19-2.63,1.65
				c0.28,0.48,2.42-1.99,2.67-1.54"/>
			<path class="st2" d="M135.88,49.67c0.49,0.86,4.38-2.64,4.43-2.56c0.19,0.32-1.94,1.05-1.79,1.3c0.09,0.16,0.63-0.99,0.9-0.52
				c0.37,0.64-4.09,2.01-3.8,2.51c0.17,0.29,5.48-3.69,5.71-3.3c0.03,0.06-1.69,0.96-1.54,1.23c0.33,0.57-0.3-0.69,0.08-0.05
				c0.16,0.29-4.97,2.66-4.65,3.21c0.32,0.56,7.12-5.25,7.61-4.4c0.7,1.21-8.54,3.98-7.88,5.13c0.78,1.35,7.95-6.76,8.89-5.13
				c0.34,0.59-9.38,4.35-8.9,5.18c0.09,0.15,8.26-6.4,8.97-5.18c0.03,0.06-0.42,0.48-0.4,0.53c0.45,0.77,0.64-0.38,0.65-0.37
				c0.02,0.04-4.73,2.24-4.35,2.9c0.51,0.89-0.87-1.74,0.1-0.06c0.02,0.04-0.16,0.2-0.16,0.21c0.33,0.57-0.24-1.24,0.36-0.21
				c0.04,0.06-0.48,0.44-0.46,0.48c0.6,1.05,0.14-1.68,0.84-0.48c0.08,0.13,1.4-0.75,1.47-0.63c0.36,0.62,1.01-3.08,2.09-1.21
				c0.06,0.1-3.42,1.86-3.2,2.24c0.69,1.19,2.77-1.7,2.81-1.62c0.51,0.88-6.69,2.94-6.06,4.02c1.19,2.07,7.84-5.15,8.11-4.68
				c0.41,0.71-11.43,4.76-10.61,6.19c0.52,0.91,9.23-6.7,9.82-5.67c0.38,0.65-7.85,4.43-7.76,4.59c0.31,0.53,4.49-5.34,5.68-3.28
				c0.05,0.09-1.46,0.83-1.31,1.08c0.42,0.73,6.48-4.07,6.62-3.82c0.97,1.68-9.63,5.66-9.55,5.8c0.24,0.42,3-3.29,3.68-2.12
				c0.19,0.34-3.97,2.15-3.72,2.57c1.12,1.95,5.03-3.83,5.43-3.13c0.62,1.07-6.74,3.25-6.4,3.84c0.1,0.17,3.37-3.08,3.86-2.23
				c0.01,0.02-1.66,0.98-1.62,1.05c1.67,2.9,2.6-5.43,4.3-2.48c0.2,0.35-2.96,1.65-2.76,1.99c1.34,2.32,2.63-3.29,3.4-1.96
				c0.05,0.08-9.28,5.06-9.07,5.43c0.02,0.03,7.35-4.6,7.5-4.33c0.24,0.42-7.44,3.41-6.99,4.18c0.27,0.46,8.14-5.45,8.46-4.89
				c0.08,0.14-4.49,1.67-4.07,2.39c1.56,2.7,2.41-1.84,2.61-1.51c0.04,0.07-2.83,1.71-2.71,1.92c1.28,2.21,5.33-3.37,5.45-3.15
				c0.29,0.51-11.73,7.07-11.61,7.27c0.84,1.46,6.18-3.66,6.22-3.59c0.04,0.07-2.41,1.4-2.21,1.75c0.65,1.12,9.65-5.68,9.7-5.6
				c0.86,1.48-12.01,5.37-11.13,6.88c0.07,0.11,10.09-6.97,10.58-6.11c1.05,1.82-11.45,4.44-10.48,6.12
				c1.47,2.55,2.41-4.1,3.58-2.07c0.22,0.39-3.74,1.72-3.42,2.26c0.95,1.65,12.02-7.32,12.18-7.03c0.09,0.16-9.06,4.67-8.56,5.52
				c0.87,1.51,6.25-4.28,6.54-3.78c0.23,0.4-12.62,7.57-12.56,7.67c0,0,4.45-5.32,5.64-3.26c0.16,0.27-9.06,4.2-8.6,5
				c0.39,0.68-0.18-1.53,0.52-0.3c0.07,0.12,3.64-2.28,3.96-1.72c0.61,1.06-0.27-1.72,0.54-0.31c0,0.01-0.68,0.68-0.68,0.69
				c0.29,0.5-0.08-1.39,0.54-0.31c0.01,0.02-4.6,2.09-4.26,2.69c0.4,0.68,4.71-5.36,5.85-3.38c0.43,0.75-6.32,3.23-6.01,3.78
				c0.34,0.58,5.27-4.22,5.78-3.34c0.16,0.27-2.65,1.48-2.4,1.9c0.6,1.04-0.13-1.51,0.56-0.32c0.08,0.13-0.72,0.59-0.68,0.66
				c0.29,0.51,0.18-0.98,0.56-0.32c0.05,0.09-0.71,0.61-0.68,0.66c0.68,1.18-0.49-2.15,0.56-0.33c0.09,0.16,1.04-0.67,1.14-0.51
				c0.46,0.79,0.47-1.05,0.8-0.46c0.01,0.02-5.02,3.13-4.93,3.27c0.17,0.3,5.34-3.68,5.6-3.23c0.22,0.39-3.82,2.37-3.67,2.63
				c0.26,0.45,0.12-1.12,0.58-0.33c0.09,0.16-0.93,0.87-0.83,1.04c0.8,1.39-0.41-2.06,0.59-0.34c0.11,0.18-3.89,2.26-3.83,2.37
				c0.57,0.99,5.01-4.15,5.55-3.21c0.23,0.4-2.62,1.6-2.52,1.77c0.37,0.63,0.02-1.34,0.59-0.34c0.02,0.03-0.67,0.37-0.63,0.44
				c0.93,1.6,0.12-1.16,0.59-0.34c0.11,0.2-0.87,0.95-0.84,1.01c0.49,0.84-0.01-1.41,0.6-0.35c0.02,0.03-0.86,0.83-0.81,0.93
				c0.15,0.25-0.11-1.58,0.6-0.35c0.04,0.07,3.7-1.88,3.83-1.66c1.2,2.08-0.54-1.05,0.05-0.03c0.41,0.71-5.36,2.29-4.88,3.12
				c0.23,0.39,0.48-0.59,0.62-0.36c0.45,0.78-5.08,2.84-4.9,3.15c0.94,1.63,0.57-0.48,0.63-0.36c0.19,0.33,3.29-1.93,3.4-1.73
				c0.9,1.56-0.48-2.27,0.62-0.36c0.02,0.03-3.38,1.55-3.16,1.93c0.88,1.53,4.55-4.7,5.45-3.15c0.28,0.49-3.35,2.16-3.21,2.4
				c0.6,1.03,0.27-1,0.63-0.36c0.12,0.21-1.15,0.78-1.07,0.92c1.19,2.06,2.34-1.99,2.61-1.51c0.12,0.2-7.68,4.02-7.3,4.67
				c0.04,0.07,5.61-5.71,6.68-3.86c0,0-0.87,0.72-0.83,0.79c0.6,1.05,0.88-0.78,0.99-0.57c0.01,0.02-7.67,3.9-7.38,4.4
				c0.1,0.18,4.83-4.96,5.77-3.33c0.39,0.67-4.09,2.57-4.08,2.58c1.13,1.95,3.47-3.13,3.95-2.28c0.07,0.12-0.95,1.08-0.93,1.11
				c0.89,1.55,0.15-1.26,0.66-0.38c0.03,0.05-0.74,0.37-0.69,0.46c0.15,0.26-0.42-2.24,0.66-0.38c0.2,0.35-4.25,2.09-3.92,2.67
				c1.15,1.99,7.01-4.81,7.34-4.24c0.16,0.28-3.42,1.5-3.1,2.07c1.1,1.91,4.1-3.15,4.44-2.56c0.41,0.7-6.02,3.8-5.95,3.92
				c0.57,0.98,0.54-0.62,0.67-0.39c0.17,0.29-3.45,2.03-3.25,2.38c0.38,0.66,3.69-4.07,4.53-2.61c0.12,0.21-3.09,1.94-2.99,2.12
				c0.89,1.54-0.45-1,0.09-0.05c0,0,0.31,0.21,0.33,0.25c0.44,0.76-0.17-1.89,0.69-0.4c0.22,0.39-2.28,1.68-2.27,1.68
				c0.87,1.51,3.23-3.47,3.93-2.27c0.03,0.06-0.04,0.54-0.01,0.59c0.23,0.39,1.28-0.86,1.33-0.77c0.01,0.02-4.19,2.22-3.92,2.7
				c0.9,1.56,2.22-3.47,3.17-1.83c0.2,0.34-3.92,2.11-3.71,2.47c0.42,0.72,0.08-1.51,0.71-0.41c0.25,0.43-5.43,2.05-4.92,2.93
				c0.87,1.5,0.96-1.49,1.37-0.79c0.31,0.54,4.2-2.43,4.44-2.01c0.66,1.14,0.71-2.22,1.49-0.86c0.43,0.75-8.28,4.25-8,4.74
				c0.12,0.2,6.85-5.74,7.63-4.4c0.15,0.26-3.57,1.9-3.29,2.38c0.81,1.4-0.26-2.12,0.73-0.42c0.25,0.43-4.19,2.38-4.08,2.56
				c0.35,0.61,0.04-1.24,0.56-0.32c0.07,0.13-0.72,0.56-0.66,0.66c0.78,1.35,2.4-2.19,2.75-1.59c0.02,0.04,0.37-0.12,0.4-0.06
				c0.08,0.15,0.32-1.15,0.74-0.42c0.11,0.18-1.07,0.91-0.97,1.08c0.35,0.6,0.12-1.5,0.74-0.43c0.05,0.09-0.84,0.63-0.82,0.66
				c0.51,0.88,0.58-0.71,0.74-0.43c0.02,0.04-1.01,0.67-0.9,0.86c1.04,1.8,0.61-0.67,0.75-0.43c0.06,0.11-2.5,1.44-2.42,1.58
				c1.19,2.07-0.07-1.36,0.53-0.31c0.06,0.1,0.97-0.43,0.98-0.42c1.2,2.07-0.2-2.08,0.75-0.43c0.02,0.04,1.02-0.18,1.06-0.1
				c0.66,1.14-0.74-2.03,0.32-0.19c0,0.01,0.15,0.22,0.17,0.27c0.98,1.7,0.26-1.26,0.74-0.43c0.34,0.58-7.17,3.78-6.83,4.37
				c0.62,1.08,2.41-2.11,2.72-1.57c0.02,0.03,0.3,0.07,0.33,0.1c0.91,1.58-0.4-2.48,0.77-0.45c0.05,0.09,1.07-0.77,1.16-0.6
				c0.49,0.84,1.12-3.22,2.23-1.29c0.27,0.47-4.07,1.97-3.84,2.35c0.62,1.07,0.39-1.51,0.95-0.55c0.37,0.63-4.42,2.48-4.31,2.67
				c1.19,2.07,4.8-2.78,4.8-2.77c0.68,1.19-7.03,3.83-6.75,4.34c0.14,0.24,4.55-4.36,5.3-3.06c0.03,0.05-0.88,0.55-0.8,0.69
				c0.6,1.04-0.17-2.11,0.79-0.45c0.09,0.16-0.97,0.65-0.9,0.77c0.04,0.08-0.37-2.46,0.79-0.46c0.11,0.18-1.02,0.91-0.98,0.97
				c0.29,0.51,0.67-0.67,0.79-0.46c0,0.01-1.08,0.97-1.02,1.07c0.93,1.62,0.11-1.66,0.8-0.46c0.02,0.04-0.83,0.45-0.81,0.49
				c0.98,1.7,0.78-0.49,0.8-0.46c0.08,0.14-1.13,0.88-1.02,1.07c0.29,0.5,0.77-0.53,0.81-0.47c0.14,0.24-6,3.47-5.91,3.63
				c1.14,1.97-0.22-2.54,0.93-0.54c0.28,0.48,3.79-2.2,3.93-1.96c0.63,1.09,0.55-0.93,0.81-0.47c0.08,0.14-1.96,1.16-1.85,1.36
				c1.21,2.09,1.72-1.53,1.96-1.13c0.2,0.34-3.28,1.94-3.07,2.31c0.07,0.12,4.44-4.86,5.44-3.14c0.29,0.5-3.79,2.2-3.74,2.29
				c0.77,1.33,0.53-0.98,0.83-0.48c0.04,0.07-0.93,0.39-0.85,0.54c0.39,0.67,0.55-0.96,0.83-0.48c0.02,0.04-2.32,1.69-2.24,1.83
				c0.8,1.39-1.02-1.78,0.01-0.01c0,0,0.07,0.24,0.08,0.26c1.21,2.09,4.93-3.95,5.41-3.12c0.25,0.43-5.11,2.64-4.73,3.31
				c0.81,1.39-0.07-2.07,0.84-0.49c0.03,0.05-4.52,2.04-4.15,2.67c0.11,0.19,0.53-2.61,1.53-0.88c0.12,0.22,1.37-0.52,1.45-0.39
				c1.12,1.95,0.57-0.98,0.85-0.49c0.06,0.11-0.88,0.62-0.82,0.72c0.16,0.28,2.25-1.37,2.28-1.31c0.12,0.2-1.73,1.25-1.72,1.26
				c0.21,0.36,0.18-0.38,0.3-0.17c0.52,0.9-6.15,3.13-5.88,3.61c0.15,0.27,8.07-6.44,8.84-5.1c0.24,0.42-4.21,2.48-4.21,2.49
				c0.99,1.72,0.08-1.86,0.86-0.5c0.47,0.82-4.78,2.21-4.49,2.72c0.65,1.13,3.12-4.07,4.11-2.37c0.1,0.17-1.57,1.38-1.55,1.41
				c0.13,0.23,5.04-3.77,5.41-3.12c0.1,0.17-4.77,2.9-4.72,2.98c1.19,2.06,3.58-4.04,4.44-2.56c0.25,0.44-6.92,3.22-6.48,3.97
				c1.04,1.79,3.43-4.75,4.63-2.67c0.09,0.16-0.92,0.61-0.84,0.75c0.16,0.27,2.68-1.62,2.71-1.57c0.27,0.47-4.97,3.07-4.9,3.2
				c1.04,1.8,0.43-1.3,0.89-0.51c0.21,0.36-2.87,2.01-2.79,2.15c0.38,0.65,5.44-3.59,5.63-3.25c0.01,0.02-3.18,1.71-2.9,2.19
				c0.29,0.51,3.5-3.33,4.07-2.35c0.45,0.78-8.61,3.65-7.79,5.07c0.02,0.03,6.6-4.43,6.87-3.97c0.12,0.2-5.84,3.27-5.76,3.4
				c1.37,2.37,3.7-4.15,4.57-2.64c0.68,1.18-7.41,4.28-7.36,4.37c0.08,0.13,2.8-3.01,3.4-1.97c0.11,0.2,1.39-0.63,1.43-0.56
				c1.56,2.71,6.71-4.43,6.95-4.01c0.48,0.83-9.9,5.26-9.53,5.9c0.81,1.4,10.87-7.26,11.29-6.52c0.54,0.93-5.73,2.49-5.25,3.32
				c1.41,2.44,4.9-3.14,5.03-2.91c0.18,0.31-15.02,6.72-14.17,8.2c1.56,2.7,8.98-6.39,9.5-5.48c0.83,1.43-8.78,5.06-8.65,5.28
				c1.17,2.02,5.06-5.08,5.99-3.46c0.02,0.03-0.51,0.43-0.45,0.53c0.57,0.99,8.43-6.76,9.25-5.34c1.72,2.98-18.23,7.58-16.77,10.12
				c0.39,0.67,16.89-10.15,17.06-9.85c0.43,0.75-10.9,6.32-10.81,6.47c1.11,1.93,10.27-6.85,10.67-6.16
				c0.71,1.23-11.05,5.89-10.72,6.46c1.19,2.06,4.19-6.3,5.87-3.39c0.31,0.53-4.44,2.62-4.3,2.86c2.16,3.75,7.9-5.28,8.21-4.74
				c0.55,0.96-9.84,5.03-9.54,5.55c1.02,1.76,1.89-3.74,3.04-1.76c0.71,1.23-8.26,5.11-8.21,5.19c0.55,0.95,13.09-9.09,13.75-7.94
				c0.47,0.82-7.54,4.41-7.53,4.43c1.54,2.67,7.61-5.28,7.99-4.61c0.49,0.85-10.52,6.39-10.42,6.54c0.6,1.04,5.88-3.83,6.07-3.51
				c0.64,1.11-9.13,4.39-8.56,5.37c2.43,4.22,11.4-8.32,12.15-7.02c1.17,2.02-16.45,6.16-14.93,8.79
				c0.67,1.16,14.91-8.69,14.94-8.63c1.53,2.65-15.83,7.88-15.22,8.93c1.55,2.69,19.76-15.4,21.49-12.41
				c1.21,2.09-18.87,8.2-17.6,10.38c1.38,2.38,15.58-12.05,16.9-9.76c1.29,2.23-19.23,9.8-18.47,11.11
				c1.19,2.06,1.56-1.16,1.67-0.97c0.06,0.1-0.59,0.77-0.54,0.86c0.45,0.78,0.62-1.04,0.92-0.53c0.05,0.08-0.62,0.7-0.58,0.78
				c0.18,0.31,0.65-3.02,1.79-1.04c0.2,0.34-3.23,1.59-3,1.98c0.99,1.72,0.2-1.02,0.59-0.34c0,0-0.13,0.23-0.12,0.25
				c0.78,1.36-0.15-2.43,0.94-0.54c0.23,0.4-4.39,2.15-4.11,2.63c1.06,1.83,3.4-3.93,4.25-2.45c0.05,0.09-3.93,1.89-3.68,2.31
				c1.15,1.98,7.01-5.73,7.74-4.47c0.43,0.75-10.7,4.87-9.91,6.24c0.7,1.21,2.01-1.79,2.28-1.32c0.14,0.24,1.64-0.73,1.79-0.47
				c1.22,2.1-0.22-2.62,0.97-0.56c0.14,0.25-6.26,3.37-6.03,3.76c0.03,0.06,9.26-6.92,9.94-5.74c0.48,0.82-5.27,2.38-4.97,2.89
				c0,0.01,2.92-4.32,4.06-2.34c0.1,0.18-1.05,0.88-0.97,1.02c0.04,0.08,2.08-2.52,2.65-1.53c0.03,0.05-4.36,2.43-4.17,2.76
				c0.16,0.28,2.8-4,3.83-2.21c0.64,1.11-8.29,3.47-7.66,4.56c1.13,1.97,4.77-4.47,5.51-3.18c0.37,0.64-4.18,1.97-3.87,2.51
				c0.95,1.65,0.1-2.14,1.01-0.58c0.12,0.21-1.24,0.94-1.18,1.05c0.85,1.47,0.49-1.5,1.01-0.59c0.04,0.06-1.3,1.14-1.25,1.23
				c1.19,2.06,0.24-1.96,1.03-0.59c0.27,0.47-4.18,2.33-3.89,2.82c1.04,1.8,7.71-6.71,8.69-5.01c0.34,0.59-6.79,3.52-6.46,4.1
				c0.51,0.89,3.01-1.83,3.05-1.76c0,0.01-4.64,2.48-4.48,2.77c0.03,0.06,6.45-5.83,7.36-4.25c0.22,0.38-11.54,6.23-11.13,6.93
				c0.31,0.54,8.12-6.06,8.71-5.03c0.21,0.36-3.59,2.01-3.48,2.2c1.18,2.05,3.52-4.07,4.4-2.54c0.27,0.47-5.09,3-4.88,3.35
				c0.7,1.21,0.28-2.01,1.08-0.62c0.09,0.15-1.33,0.98-1.25,1.11c1.03,1.79-0.07-2.63,1.09-0.63c0.48,0.83-6.56,3.12-6.08,3.95
				c0.83,1.44,8.21-5.95,8.74-5.04c0.28,0.49-6.16,2.84-5.81,3.45c0.11,0.2,4.46-5.01,5.52-3.19c0.02,0.03-5.19,2.64-4.78,3.35
				c0.4,0.69,3.81-4.96,5-2.89c0.83,1.43-9.17,5.59-9.16,5.6c0.74,1.28,4.84-4.08,5.4-3.12c0.04,0.06-0.22,0.5-0.18,0.57
				c0.55,0.95,3.5-3.1,3.97-2.29c0.36,0.61-5.72,2.78-5.26,3.56c0.27,0.46,0.35-2.92,1.52-0.88c0.04,0.08-0.3,0.51-0.3,0.51
				c0.23,0.4-0.11-0.68,0.21-0.12c0.36,0.62,4.11-2.46,4.35-2.05c0.55,0.95,0.14-0.31,0.24-0.14c0.12,0.2-8.88,4.63-8.49,5.3
				c0.18,0.32,8.01-6.28,8.72-5.04c0.27,0.47-6.44,3.65-6.19,4.1c0.55,0.95,3.48-3.11,3.95-2.28c0.46,0.79-5.35,2.59-4.99,3.21
				c0.31,0.54,6.83-3.99,6.85-3.95c0.63,1.09-6.57,2.79-5.94,3.87c0.61,1.06,4.78-3.61,5.15-2.97c0.3,0.51-5.29,2.18-4.79,3.04
				c0.56,0.98,5.25-3.07,5.27-3.04c0.33,0.57-4.84,2.58-4.58,3.04c0.25,0.44,3.89-3.45,4.41-2.55"/>
		</g>
	</g>
</g>
</svg>
